<svg width="20" height="20" viewBox="0 0 20 20" fill="none" xmlns="http://www.w3.org/2000/svg">
<path d="M10.394 2.07997C10.2695 2.0266 10.1355 1.99908 10 1.99908C9.86455 1.99908 9.73051 2.0266 9.60601 2.07997L2.60601 5.07997C2.42562 5.15682 2.2718 5.285 2.16368 5.44858C2.05557 5.61215 1.99792 5.8039 1.99792 5.99997C1.99792 6.19605 2.05557 6.3878 2.16368 6.55137C2.2718 6.71495 2.42562 6.84313 2.60601 6.91997L5.25001 8.05097C5.34815 7.93997 5.46975 7.85218 5.60601 7.79397L9.60601 6.07997C9.72705 6.02603 9.85761 5.99667 9.99009 5.99362C10.1226 5.99058 10.2544 6.01389 10.3777 6.06221C10.5011 6.11054 10.6137 6.1829 10.7089 6.27511C10.8041 6.36732 10.88 6.47752 10.9322 6.59932C10.9844 6.72112 11.0119 6.85208 11.0131 6.9846C11.0142 7.11711 10.989 7.24854 10.939 7.37123C10.8889 7.49393 10.8149 7.60545 10.7214 7.69931C10.6278 7.79317 10.5165 7.8675 10.394 7.91797L7.66701 9.08797L9.60701 9.91897C9.73137 9.9722 9.86523 9.99965 10.0005 9.99965C10.1358 9.99965 10.2696 9.9722 10.394 9.91897L17.394 6.91897C17.5738 6.84184 17.727 6.71366 17.8347 6.55031C17.9424 6.38696 17.9997 6.19562 17.9997 5.99997C17.9997 5.80433 17.9424 5.61299 17.8347 5.44964C17.727 5.28629 17.5738 5.15811 17.394 5.08097L10.394 2.08097V2.07997ZM3.31001 9.39697L5.00001 10.12V14.222C4.65376 14.1432 4.30314 14.0851 3.95001 14.048C3.72215 14.024 3.50943 13.9226 3.34742 13.7606C3.18542 13.5986 3.08395 13.3858 3.06001 13.158C2.9285 11.8989 3.01305 10.6266 3.31001 9.39597V9.39697ZM9.30001 16.573C8.62402 15.9097 7.84786 15.3569 7.00001 14.935V10.978L8.81801 11.758C9.1915 11.9181 9.59364 12.0006 10 12.0006C10.4064 12.0006 10.8085 11.9181 11.182 11.758L16.69 9.39697C16.9887 10.6273 17.0733 11.8999 16.94 13.159C16.9161 13.3868 16.8146 13.5996 16.6526 13.7616C16.4906 13.9236 16.2779 14.025 16.05 14.049C14.0325 14.261 12.1465 15.1508 10.7 16.573C10.5131 16.7562 10.2618 16.8588 10 16.8588C9.73825 16.8588 9.48694 16.7562 9.30001 16.573V16.573ZM6.00001 18C6.26522 18 6.51958 17.8946 6.70711 17.7071C6.89465 17.5195 7.00001 17.2652 7.00001 17V14.935C6.364 14.619 5.6926 14.38 5.00001 14.223V17C5.00001 17.2652 5.10536 17.5195 5.2929 17.7071C5.48044 17.8946 5.73479 18 6.00001 18Z" fill="#6B7280"/>
</svg>
