<svg width="20" height="20" viewBox="0 0 20 20" fill="none" xmlns="http://www.w3.org/2000/svg">
<path fill-rule="evenodd" clip-rule="evenodd" d="M9.70703 16.707C9.5195 16.8945 9.26519 16.9998 9.00003 16.9998C8.73487 16.9998 8.48056 16.8945 8.29303 16.707L2.29303 10.707C2.10556 10.5195 2.00024 10.2651 2.00024 9.99998C2.00024 9.73482 2.10556 9.48051 2.29303 9.29298L8.29303 3.29298C8.48163 3.11082 8.73423 3.01003 8.99643 3.01231C9.25863 3.01458 9.50944 3.11975 9.69485 3.30516C9.88026 3.49057 9.98543 3.74138 9.9877 4.00358C9.98998 4.26578 9.88919 4.51838 9.70703 4.70698L5.41403 8.99998H17C17.2652 8.99998 17.5196 9.10534 17.7071 9.29287C17.8947 9.48041 18 9.73476 18 9.99998C18 10.2652 17.8947 10.5196 17.7071 10.7071C17.5196 10.8946 17.2652 11 17 11H5.41403L9.70703 15.293C9.8945 15.4805 9.99982 15.7348 9.99982 16C9.99982 16.2651 9.8945 16.5195 9.70703 16.707Z" fill="#6B7280"/>
</svg>
