<svg width="20" height="20" viewBox="0 0 20 20" fill="none" xmlns="http://www.w3.org/2000/svg">
<path fill-rule="evenodd" clip-rule="evenodd" d="M7.70703 14.707C7.5195 14.8945 7.26519 14.9998 7.00003 14.9998C6.73487 14.9998 6.48056 14.8945 6.29303 14.707L2.29303 10.707C2.10556 10.5195 2.00024 10.2651 2.00024 9.99998C2.00024 9.73482 2.10556 9.48051 2.29303 9.29298L6.29303 5.29298C6.48163 5.11082 6.73423 5.01003 6.99643 5.01231C7.25863 5.01458 7.50944 5.11975 7.69485 5.30516C7.88026 5.49057 7.98543 5.74138 7.9877 6.00358C7.98998 6.26578 7.88919 6.51838 7.70703 6.70698L5.41403 8.99998H17C17.2652 8.99998 17.5196 9.10534 17.7071 9.29287C17.8947 9.48041 18 9.73476 18 9.99998C18 10.2652 17.8947 10.5196 17.7071 10.7071C17.5196 10.8946 17.2652 11 17 11H5.41403L7.70703 13.293C7.8945 13.4805 7.99982 13.7348 7.99982 14C7.99982 14.2651 7.8945 14.5195 7.70703 14.707Z" fill="#6B7280"/>
</svg>
