<svg width="25" height="24" viewBox="0 0 25 24" fill="none" xmlns="http://www.w3.org/2000/svg">
<path fill-rule="evenodd" clip-rule="evenodd" d="M11.9073 2.46967C12.2009 2.17678 12.6769 2.17678 12.9705 2.46967L17.481 6.96967C17.7746 7.26256 17.7746 7.73744 17.481 8.03033C17.1875 8.32322 16.7115 8.32322 16.4179 8.03033L13.1907 4.81066L13.1907 16.5C13.1907 16.9142 12.8541 17.25 12.4389 17.25C12.0237 17.25 11.6871 16.9142 11.6871 16.5L11.6871 4.81066L8.45992 8.03033C8.16633 8.32322 7.69035 8.32322 7.39676 8.03033C7.10318 7.73744 7.10318 7.26256 7.39677 6.96967L11.9073 2.46967ZM3.41778 15.75C3.83296 15.75 4.16954 16.0858 4.16954 16.5V18.75C4.16954 19.5784 4.84269 20.25 5.67306 20.25H19.2047C20.0351 20.25 20.7083 19.5784 20.7083 18.75V16.5C20.7083 16.0858 21.0448 15.75 21.46 15.75C21.8752 15.75 22.2118 16.0858 22.2118 16.5V18.75C22.2118 20.4069 20.8655 21.75 19.2047 21.75H5.67306C4.01231 21.75 2.66602 20.4069 2.66602 18.75V16.5C2.66602 16.0858 3.00259 15.75 3.41778 15.75Z" fill="#6B7280" stroke="#6B7280" stroke-width="0.5" stroke-linecap="round" stroke-linejoin="round"/>
</svg>
