<svg width="20" height="20" viewBox="0 0 20 20" fill="none" xmlns="http://www.w3.org/2000/svg">
<path fill-rule="evenodd" clip-rule="evenodd" d="M14.707 12.707C14.5195 12.8945 14.2651 12.9998 14 12.9998C13.7348 12.9998 13.4805 12.8945 13.293 12.707L9.99998 9.414L6.70698 12.707C6.51838 12.8892 6.26578 12.99 6.00358 12.9877C5.74138 12.9854 5.49057 12.8802 5.30516 12.6948C5.11975 12.5094 5.01458 12.2586 5.01231 11.9964C5.01003 11.7342 5.11082 11.4816 5.29298 11.293L9.29298 7.293C9.48051 7.10553 9.73482 7.00021 9.99998 7.00021C10.2651 7.00021 10.5195 7.10553 10.707 7.293L14.707 11.293C14.8945 11.4805 14.9998 11.7348 14.9998 12C14.9998 12.2652 14.8945 12.5195 14.707 12.707Z" fill="#6B7280"/>
</svg>
