<svg width="20" height="20" viewBox="0 0 20 20" fill="none" xmlns="http://www.w3.org/2000/svg">
<path d="M7.58579 2.58579C7.96086 2.21071 8.46957 2 9 2H12.586C13.1164 2.00011 13.625 2.2109 14 2.586L16.414 5C16.7891 5.37499 16.9999 5.88361 17 6.414V12C17 12.5304 16.7893 13.0391 16.4142 13.4142C16.0391 13.7893 15.5304 14 15 14H9C8.46957 14 7.96086 13.7893 7.58579 13.4142C7.21071 13.0391 7 12.5304 7 12V4C7 3.46957 7.21071 2.96086 7.58579 2.58579Z" fill="#6B7280"/>
<path d="M3.58579 6.58579C3.21071 6.96086 3 7.46957 3 8V16C3 16.5304 3.21071 17.0391 3.58579 17.4142C3.96086 17.7893 4.46957 18 5 18H11C11.5304 18 12.0391 17.7893 12.4142 17.4142C12.7893 17.0391 13 16.5304 13 16H5V6C4.46957 6 3.96086 6.21071 3.58579 6.58579Z" fill="#6B7280"/>
</svg>
