<svg width="20" height="20" viewBox="0 0 20 20" fill="none" xmlns="http://www.w3.org/2000/svg">
<path d="M4.555 5.168C4.4044 5.06752 4.22935 5.00981 4.04852 5.00103C3.86769 4.99224 3.68786 5.03271 3.52823 5.11812C3.36861 5.20353 3.23516 5.33068 3.14213 5.48599C3.0491 5.6413 2.99997 5.81895 3 6V14C2.99997 14.181 3.0491 14.3587 3.14213 14.514C3.23516 14.6693 3.36861 14.7965 3.52823 14.8819C3.68786 14.9673 3.86769 15.0078 4.04852 14.999C4.22935 14.9902 4.4044 14.9325 4.555 14.832L10 11.202V14C9.99997 14.181 10.0491 14.3587 10.1421 14.514C10.2352 14.6693 10.3686 14.7965 10.5282 14.8819C10.6879 14.9673 10.8677 15.0078 11.0485 14.999C11.2293 14.9902 11.4044 14.9325 11.555 14.832L17.555 10.832C17.692 10.7407 17.8043 10.617 17.8819 10.4718C17.9596 10.3267 18.0002 10.1646 18.0002 10C18.0002 9.83538 17.9596 9.67332 17.8819 9.52818C17.8043 9.38304 17.692 9.25932 17.555 9.168L11.555 5.168C11.4044 5.06752 11.2293 5.00981 11.0485 5.00103C10.8677 4.99224 10.6879 5.03271 10.5282 5.11812C10.3686 5.20353 10.2352 5.33068 10.1421 5.48599C10.0491 5.6413 9.99997 5.81895 10 6V8.798L4.555 5.168Z" fill="#6B7280"/>
</svg>
