<svg width="20" height="20" viewBox="0 0 20 20" fill="none" xmlns="http://www.w3.org/2000/svg">
<path fill-rule="evenodd" clip-rule="evenodd" d="M5 5C5.00001 4.42087 5.16765 3.85414 5.48266 3.36819C5.79768 2.88224 6.24662 2.49786 6.77529 2.26144C7.30395 2.02502 7.88975 1.94667 8.46196 2.03585C9.03418 2.12502 9.56835 2.37792 10 2.764C10.4964 2.3191 11.1268 2.0522 11.7918 2.00543C12.4567 1.95866 13.1183 2.13468 13.6721 2.5057C14.2259 2.87673 14.6403 3.42162 14.85 4.05437C15.0597 4.68712 15.0526 5.37169 14.83 6H16C16.5304 6 17.0391 6.21071 17.4142 6.58578C17.7893 6.96086 18 7.46956 18 8C18 8.53043 17.7893 9.03914 17.4142 9.41421C17.0391 9.78928 16.5304 10 16 10H11V9C11 8.73478 10.8946 8.48043 10.7071 8.29289C10.5196 8.10535 10.2652 8 10 8C9.73478 8 9.48043 8.10535 9.29289 8.29289C9.10536 8.48043 9 8.73478 9 9V10H4C3.46957 10 2.96086 9.78928 2.58579 9.41421C2.21071 9.03914 2 8.53043 2 8C2 7.46956 2.21071 6.96086 2.58579 6.58578C2.96086 6.21071 3.46957 6 4 6H5.17C5.06 5.687 5 5.35 5 5ZM9 6V5C9 4.80222 8.94135 4.60888 8.83147 4.44443C8.72159 4.27998 8.56541 4.1518 8.38268 4.07612C8.19996 4.00043 7.99889 3.98063 7.80491 4.01921C7.61093 4.0578 7.43275 4.15304 7.29289 4.29289C7.15304 4.43274 7.0578 4.61093 7.01921 4.80491C6.98063 4.99889 7.00043 5.19995 7.07612 5.38268C7.15181 5.56541 7.27998 5.72158 7.44443 5.83147C7.60888 5.94135 7.80222 6 8 6H9ZM12 6C12.1978 6 12.3911 5.94135 12.5556 5.83147C12.72 5.72158 12.8482 5.56541 12.9239 5.38268C12.9996 5.19995 13.0194 4.99889 12.9808 4.80491C12.9422 4.61093 12.847 4.43274 12.7071 4.29289C12.5673 4.15304 12.3891 4.0578 12.1951 4.01921C12.0011 3.98063 11.8 4.00043 11.6173 4.07612C11.4346 4.1518 11.2784 4.27998 11.1685 4.44443C11.0586 4.60888 11 4.80222 11 5V6H12Z" fill="#6B7280"/>
<path d="M9 11H3V16C3 16.5304 3.21071 17.0391 3.58579 17.4142C3.96086 17.7893 4.46957 18 5 18H9V11ZM11 18H15C15.5304 18 16.0391 17.7893 16.4142 17.4142C16.7893 17.0391 17 16.5304 17 16V11H11V18Z" fill="#6B7280"/>
</svg>
