<svg width="24" height="24" viewBox="0 0 24 24" fill="none" xmlns="http://www.w3.org/2000/svg">
<path fill-rule="evenodd" clip-rule="evenodd" d="M7.50001 4.88101V4.87501V4.88251C7.49901 5.18055 7.37979 5.46602 7.16852 5.67624C6.95724 5.88646 6.67118 6.00425 6.37314 6.00375C6.07509 6.00326 5.78943 5.88451 5.57886 5.67359C5.36828 5.46266 5.25001 5.1768 5.25001 4.87876C5.25001 4.58071 5.36828 4.29485 5.57886 4.08392C5.78943 3.873 6.07509 3.75425 6.37314 3.75376C6.67118 3.75326 6.95724 3.87105 7.16852 4.08127C7.37979 4.29149 7.49901 4.57696 7.50001 4.87501V4.88101ZM8.17501 7.731C8.82119 7.32361 9.31006 6.70905 9.56169 5.98779C9.81332 5.26654 9.81283 4.48125 9.5603 3.76031C9.30777 3.03937 8.81813 2.42542 8.17144 2.01883C7.52475 1.61225 6.75925 1.43707 6.00009 1.52194C5.24093 1.60681 4.53301 1.94671 3.99207 2.48607C3.45113 3.02543 3.10916 3.73234 3.02207 4.49125C2.93497 5.25016 3.10791 6.01617 3.5126 6.66405C3.9173 7.31193 4.52981 7.80336 5.25001 8.05801V15.942C4.49939 16.2074 3.86676 16.7296 3.46392 17.4163C3.06108 18.103 2.91398 18.91 3.04861 19.6947C3.18324 20.4794 3.59094 21.1912 4.19964 21.7044C4.80834 22.2175 5.57886 22.499 6.37501 22.499C7.17116 22.499 7.94167 22.2175 8.55037 21.7044C9.15908 21.1912 9.56677 20.4794 9.7014 19.6947C9.83603 18.91 9.68893 18.103 9.28609 17.4163C8.88326 16.7296 8.25062 16.2074 7.50001 15.942V10.6845C8.30741 11.5726 9.29171 12.2818 10.3896 12.7667C11.4875 13.2516 12.6748 13.5014 13.875 13.5H15.942C16.2074 14.251 16.7298 14.8841 17.4168 15.2872C18.1038 15.6903 18.9112 15.8376 19.6963 15.7029C20.4814 15.5683 21.1936 15.1604 21.707 14.5514C22.2205 13.9425 22.5021 13.1716 22.5021 12.375C22.5021 11.5785 22.2205 10.8076 21.707 10.1986C21.1936 9.58958 20.4814 9.18172 19.6963 9.04709C18.9112 8.91245 18.1038 9.05971 17.4168 9.46283C16.7298 9.86595 16.2074 10.499 15.942 11.25H13.875C12.692 11.2501 11.5322 10.921 10.5255 10.2995C9.51888 9.67804 8.70501 8.78869 8.17501 7.731V7.731ZM19.125 13.5C19.4234 13.5 19.7095 13.3815 19.9205 13.1705C20.1315 12.9595 20.25 12.6734 20.25 12.375C20.25 12.0766 20.1315 11.7905 19.9205 11.5795C19.7095 11.3685 19.4234 11.25 19.125 11.25C18.8266 11.25 18.5405 11.3685 18.3295 11.5795C18.1185 11.7905 18 12.0766 18 12.375C18 12.6734 18.1185 12.9595 18.3295 13.1705C18.5405 13.3815 18.8266 13.5 19.125 13.5ZM6.37501 20.25C6.67338 20.25 6.95952 20.1315 7.1705 19.9205C7.38148 19.7095 7.50001 19.4234 7.50001 19.125C7.50001 18.8266 7.38148 18.5405 7.1705 18.3295C6.95952 18.1185 6.67338 18 6.37501 18C6.07664 18 5.79049 18.1185 5.57951 18.3295C5.36853 18.5405 5.25001 18.8266 5.25001 19.125C5.25001 19.4234 5.36853 19.7095 5.57951 19.9205C5.79049 20.1315 6.07664 20.25 6.37501 20.25Z" fill="#4B5563"/>
</svg>
