<svg width="24" height="24" viewBox="0 0 24 24" fill="none" xmlns="http://www.w3.org/2000/svg">
<path d="M5.625 6.75C6.12228 6.75 6.59919 6.55246 6.95083 6.20083C7.30246 5.84919 7.5 5.37228 7.5 4.875C7.5 4.37772 7.30246 3.90081 6.95083 3.54917C6.59919 3.19754 6.12228 3 5.625 3C5.12772 3 4.65081 3.19754 4.29917 3.54917C3.94754 3.90081 3.75 4.37772 3.75 4.875C3.75 5.37228 3.94754 5.84919 4.29917 6.20083C4.65081 6.55246 5.12772 6.75 5.625 6.75V6.75Z" fill="#4B5563"/>
<path fill-rule="evenodd" clip-rule="evenodd" d="M4.49998 11.625C4.49998 11.3266 4.61851 11.0405 4.82949 10.8295C5.04046 10.6185 5.32661 10.5 5.62498 10.5C5.92335 10.5 6.2095 10.6185 6.42048 10.8295C6.63145 11.0405 6.74998 11.3266 6.74998 11.625V15.942C7.50101 16.2074 8.13404 16.7298 8.53716 17.4168C8.94028 18.1038 9.08754 18.9112 8.9529 19.6963C8.81826 20.4814 8.4104 21.1936 7.80142 21.707C7.19243 22.2205 6.42153 22.5021 5.62498 22.5021C4.82843 22.5021 4.05753 22.2205 3.44855 21.707C2.83956 21.1936 2.4317 20.4814 2.29706 19.6963C2.16243 18.9112 2.30968 18.1038 2.7128 17.4168C3.11592 16.7298 3.74895 16.2074 4.49998 15.942V11.625ZM5.62498 20.25C5.92335 20.25 6.2095 20.1315 6.42048 19.9205C6.63145 19.7095 6.74998 19.4234 6.74998 19.125C6.74998 18.8266 6.63145 18.5405 6.42048 18.3295C6.2095 18.1185 5.92335 18 5.62498 18C5.32661 18 5.04046 18.1185 4.82949 18.3295C4.61851 18.5405 4.49998 18.8266 4.49998 19.125C4.49998 19.4234 4.61851 19.7095 4.82949 19.9205C5.04046 20.1315 5.32661 20.25 5.62498 20.25V20.25Z" fill="#4B5563"/>
<path d="M13.125 8.625C13.125 9.12228 12.9275 9.59919 12.5758 9.95083C12.2242 10.3025 11.7473 10.5 11.25 10.5C10.7527 10.5 10.2758 10.3025 9.92417 9.95083C9.57254 9.59919 9.375 9.12228 9.375 8.625C9.375 8.12772 9.57254 7.65081 9.92417 7.29917C10.2758 6.94754 10.7527 6.75 11.25 6.75C11.7473 6.75 12.2242 6.94754 12.5758 7.29917C12.9275 7.65081 13.125 8.12772 13.125 8.625Z" fill="#4B5563"/>
<path fill-rule="evenodd" clip-rule="evenodd" d="M21.75 12.375C21.75 12.8182 21.6627 13.2571 21.4931 13.6666C21.3235 14.076 21.0749 14.4481 20.7615 14.7615C20.4481 15.0749 20.076 15.3235 19.6666 15.4931C19.2571 15.6627 18.8182 15.75 18.375 15.75C17.9318 15.75 17.4929 15.6627 17.0834 15.4931C16.674 15.3235 16.3019 15.0749 15.9885 14.7615C15.6751 14.4481 15.4265 14.076 15.2569 13.6666C15.0873 13.2571 15 12.8182 15 12.375C15 11.4799 15.3556 10.6215 15.9885 9.98851C16.6215 9.35558 17.4799 9 18.375 9C19.2701 9 20.1285 9.35558 20.7615 9.98851C21.3944 10.6215 21.75 11.4799 21.75 12.375V12.375ZM19.5 12.375C19.5 12.6734 19.3815 12.9595 19.1705 13.1705C18.9595 13.3815 18.6734 13.5 18.375 13.5C18.0766 13.5 17.7905 13.3815 17.5795 13.1705C17.3685 12.9595 17.25 12.6734 17.25 12.375C17.25 12.0766 17.3685 11.7905 17.5795 11.5795C17.7905 11.3685 18.0766 11.25 18.375 11.25C18.6734 11.25 18.9595 11.3685 19.1705 11.5795C19.3815 11.7905 19.5 12.0766 19.5 12.375Z" fill="#4B5563"/>
</svg>
