<svg width="24" height="24" viewBox="0 0 24 24" fill="none" xmlns="http://www.w3.org/2000/svg">
<path fill-rule="evenodd" clip-rule="evenodd" d="M10.7655 4.60951L14.3595 1.01551C14.4119 0.962925 14.4788 0.927102 14.5516 0.912577C14.6245 0.898052 14.7 0.905479 14.7686 0.933917C14.8372 0.962355 14.8958 1.01052 14.937 1.07232C14.9782 1.13411 15.0001 1.20674 15 1.28101V8.46901C15.0001 8.54327 14.9782 8.6159 14.937 8.6777C14.8958 8.73949 14.8372 8.78766 14.7686 8.81609C14.7 8.84453 14.6245 8.85196 14.5516 8.83743C14.4788 8.82291 14.4119 8.78709 14.3595 8.73451L10.7655 5.14051C10.7306 5.10567 10.7029 5.06429 10.6839 5.01873C10.665 4.97317 10.6553 4.92433 10.6553 4.87501C10.6553 4.82568 10.665 4.77684 10.6839 4.73128C10.7029 4.68572 10.7306 4.64434 10.7655 4.60951ZM5.62498 3.75001C5.32661 3.75001 5.04046 3.86853 4.82949 4.07951C4.61851 4.29049 4.49998 4.57664 4.49998 4.87501C4.49998 5.17337 4.61851 5.45952 4.82949 5.6705C5.04046 5.88148 5.32661 6.00001 5.62498 6.00001C5.92335 6.00001 6.2095 5.88148 6.42048 5.6705C6.63145 5.45952 6.74998 5.17337 6.74998 4.87501C6.74998 4.57664 6.63145 4.29049 6.42048 4.07951C6.2095 3.86853 5.92335 3.75001 5.62498 3.75001V3.75001ZM2.24998 4.87501C2.25017 4.2563 2.42042 3.64956 2.74214 3.12108C3.06385 2.5926 3.52465 2.16272 4.07417 1.87842C4.62369 1.59413 5.24078 1.46636 5.85801 1.50908C6.47523 1.5518 7.06884 1.76336 7.57395 2.12064C8.07907 2.47793 8.47625 2.96719 8.7221 3.53495C8.96794 4.10271 9.05299 4.72712 8.96794 5.33995C8.8829 5.95278 8.63103 6.53044 8.23987 7.0098C7.8487 7.48916 7.3333 7.85177 6.74998 8.05801V15.942C7.50101 16.2074 8.13404 16.7298 8.53716 17.4168C8.94028 18.1038 9.08754 18.9112 8.9529 19.6963C8.81826 20.4814 8.4104 21.1936 7.80142 21.707C7.19243 22.2205 6.42153 22.5021 5.62498 22.5021C4.82843 22.5021 4.05753 22.2205 3.44855 21.707C2.83956 21.1936 2.4317 20.4814 2.29706 19.6963C2.16243 18.9112 2.30968 18.1038 2.7128 17.4168C3.11592 16.7298 3.74895 16.2074 4.49998 15.942V8.05801C3.8418 7.8253 3.27198 7.39423 2.86901 6.82417C2.46605 6.2541 2.24977 5.57311 2.24998 4.87501V4.87501ZM16.5 3.75001H15V6.00001H16.5C16.8978 6.00001 17.2793 6.15804 17.5606 6.43935C17.8419 6.72065 18 7.10218 18 7.50001V15.942C17.2489 16.2074 16.6159 16.7298 16.2128 17.4168C15.8097 18.1038 15.6624 18.9112 15.7971 19.6963C15.9317 20.4814 16.3396 21.1936 16.9485 21.707C17.5575 22.2205 18.3284 22.5021 19.125 22.5021C19.9215 22.5021 20.6924 22.2205 21.3014 21.707C21.9104 21.1936 22.3183 20.4814 22.4529 19.6963C22.5875 18.9112 22.4403 18.1038 22.0372 17.4168C21.634 16.7298 21.001 16.2074 20.25 15.942V7.50001C20.25 6.50544 19.8549 5.55162 19.1516 4.84836C18.4484 4.14509 17.4945 3.75001 16.5 3.75001ZM18 19.125C18 18.8266 18.1185 18.5405 18.3295 18.3295C18.5405 18.1185 18.8266 18 19.125 18C19.4233 18 19.7095 18.1185 19.9205 18.3295C20.1315 18.5405 20.25 18.8266 20.25 19.125C20.25 19.4234 20.1315 19.7095 19.9205 19.9205C19.7095 20.1315 19.4233 20.25 19.125 20.25C18.8266 20.25 18.5405 20.1315 18.3295 19.9205C18.1185 19.7095 18 19.4234 18 19.125ZM5.62498 18C5.32661 18 5.04046 18.1185 4.82949 18.3295C4.61851 18.5405 4.49998 18.8266 4.49998 19.125C4.49998 19.4234 4.61851 19.7095 4.82949 19.9205C5.04046 20.1315 5.32661 20.25 5.62498 20.25C5.92335 20.25 6.2095 20.1315 6.42048 19.9205C6.63145 19.7095 6.74998 19.4234 6.74998 19.125C6.74998 18.8266 6.63145 18.5405 6.42048 18.3295C6.2095 18.1185 5.92335 18 5.62498 18V18Z" fill="#4B5563"/>
</svg>
