<svg width="24" height="24" viewBox="0 0 24 24" fill="none" xmlns="http://www.w3.org/2000/svg">
<path fill-rule="evenodd" clip-rule="evenodd" d="M15.75 11.625C15.75 12.6195 15.3549 13.5734 14.6517 14.2766C13.9484 14.9799 12.9946 15.375 12 15.375C11.0054 15.375 10.0516 14.9799 9.34835 14.2766C8.64509 13.5734 8.25 12.6195 8.25 11.625C8.25 10.6304 8.64509 9.67659 9.34835 8.97333C10.0516 8.27007 11.0054 7.87498 12 7.87498C12.9946 7.87498 13.9484 8.27007 14.6517 8.97333C15.3549 9.67659 15.75 10.6304 15.75 11.625V11.625ZM17.895 12.75C17.6315 14.1203 16.8989 15.356 15.823 16.2446C14.7472 17.1333 13.3954 17.6194 12 17.6194C10.6046 17.6194 9.2528 17.1333 8.17697 16.2446C7.10114 15.356 6.3685 14.1203 6.105 12.75H1.125C0.826631 12.75 0.540483 12.6315 0.329505 12.4205C0.118526 12.2095 0 11.9234 0 11.625C0 11.3266 0.118526 11.0405 0.329505 10.8295C0.540483 10.6185 0.826631 10.5 1.125 10.5H6.105C6.3669 9.12837 7.09889 7.89101 8.1749 7.00101C9.25092 6.11102 10.6036 5.62408 12 5.62408C13.3964 5.62408 14.7491 6.11102 15.8251 7.00101C16.9011 7.89101 17.6331 9.12837 17.895 10.5H22.875C23.1734 10.5 23.4595 10.6185 23.6705 10.8295C23.8815 11.0405 24 11.3266 24 11.625C24 11.9234 23.8815 12.2095 23.6705 12.4205C23.4595 12.6315 23.1734 12.75 22.875 12.75H17.895Z" fill="#4B5563"/>
</svg>
