<svg width="24" height="24" viewBox="0 0 24 24" fill="none" xmlns="http://www.w3.org/2000/svg">
<path fill-rule="evenodd" clip-rule="evenodd" d="M16.08 1.8405C16.291 1.62982 16.5769 1.51149 16.875 1.51149C17.1732 1.51149 17.4591 1.62982 17.67 1.8405L19.125 3.2955L20.58 1.8405C20.6839 1.7331 20.808 1.64745 20.9453 1.58856C21.0826 1.52967 21.2302 1.4987 21.3796 1.49747C21.529 1.49625 21.6771 1.52478 21.8153 1.58141C21.9536 1.63804 22.0791 1.72164 22.1847 1.82732C22.2903 1.933 22.3738 2.05864 22.4303 2.19693C22.4868 2.33521 22.5152 2.48336 22.5138 2.63274C22.5124 2.78211 22.4813 2.92972 22.4223 3.06695C22.3633 3.20417 22.2775 3.32827 22.17 3.432L20.715 4.887L22.17 6.342C22.3687 6.55526 22.4769 6.83733 22.4718 7.12878C22.4667 7.42023 22.3486 7.69831 22.1425 7.90443C21.9363 8.11055 21.6583 8.22862 21.3668 8.23376C21.0754 8.2389 20.7933 8.13072 20.58 7.932L19.125 6.477L17.67 7.932C17.567 8.04253 17.4428 8.13118 17.3048 8.19267C17.1668 8.25416 17.0179 8.28722 16.8668 8.28989C16.7158 8.29255 16.5657 8.26476 16.4256 8.20818C16.2856 8.1516 16.1583 8.06738 16.0515 7.96056C15.9446 7.85373 15.8604 7.72648 15.8038 7.5864C15.7473 7.44631 15.7195 7.29627 15.7221 7.14522C15.7248 6.99416 15.7579 6.84519 15.8194 6.70719C15.8808 6.56919 15.9695 6.44499 16.08 6.342L17.535 4.887L16.08 3.432C15.8694 3.22106 15.751 2.93513 15.751 2.637C15.751 2.33887 15.8694 2.05294 16.08 1.842V1.8405ZM19.125 9.75C18.8267 9.75 18.5405 9.86853 18.3295 10.0795C18.1186 10.2905 18 10.5766 18 10.875V15.942C17.249 16.2074 16.616 16.7298 16.2129 17.4168C15.8097 18.1038 15.6625 18.9112 15.7971 19.6963C15.9317 20.4814 16.3396 21.1936 16.9486 21.707C17.5576 22.2205 18.3285 22.5021 19.125 22.5021C19.9216 22.5021 20.6925 22.2205 21.3015 21.707C21.9105 21.1936 22.3183 20.4814 22.4529 19.6963C22.5876 18.9112 22.4403 18.1038 22.0372 17.4168C21.6341 16.7298 21.0011 16.2074 20.25 15.942V10.875C20.25 10.5766 20.1315 10.2905 19.9205 10.0795C19.7095 9.86853 19.4234 9.75 19.125 9.75ZM19.125 18C18.8267 18 18.5405 18.1185 18.3295 18.3295C18.1186 18.5405 18 18.8266 18 19.125C18 19.4234 18.1186 19.7095 18.3295 19.9205C18.5405 20.1315 18.8267 20.25 19.125 20.25C19.4234 20.25 19.7095 20.1315 19.9205 19.9205C20.1315 19.7095 20.25 19.4234 20.25 19.125C20.25 18.8266 20.1315 18.5405 19.9205 18.3295C19.7095 18.1185 19.4234 18 19.125 18ZM3.75003 4.875C3.75003 4.57663 3.86856 4.29048 4.07953 4.0795C4.29051 3.86853 4.57666 3.75 4.87503 3.75C5.1734 3.75 5.45955 3.86853 5.67052 4.0795C5.8815 4.29048 6.00003 4.57663 6.00003 4.875C6.00003 5.17337 5.8815 5.45952 5.67052 5.67049C5.45955 5.88147 5.1734 6 4.87503 6C4.57666 6 4.29051 5.88147 4.07953 5.67049C3.86856 5.45952 3.75003 5.17337 3.75003 4.875ZM4.87503 1.5C4.07837 1.49932 3.30715 1.78047 2.69784 2.29371C2.08854 2.80694 1.68042 3.51917 1.54573 4.30436C1.41103 5.08956 1.55843 5.89708 1.96185 6.58405C2.36527 7.27101 2.99869 7.79313 3.75003 8.058V15.942C2.999 16.2074 2.36597 16.7298 1.96285 17.4168C1.55973 18.1038 1.41248 18.9112 1.54711 19.6963C1.68175 20.4814 2.08961 21.1936 2.69859 21.707C3.30758 22.2205 4.07848 22.5021 4.87503 22.5021C5.67158 22.5021 6.44248 22.2205 7.05147 21.707C7.66045 21.1936 8.06831 20.4814 8.20295 19.6963C8.33758 18.9112 8.19033 18.1038 7.78721 17.4168C7.38409 16.7298 6.75106 16.2074 6.00003 15.942V8.058C6.75137 7.79313 7.38479 7.27101 7.78821 6.58405C8.19163 5.89708 8.33903 5.08956 8.20433 4.30436C8.06963 3.51917 7.66152 2.80694 7.05222 2.29371C6.44291 1.78047 5.67169 1.49932 4.87503 1.5ZM4.87503 18C4.57666 18 4.29051 18.1185 4.07953 18.3295C3.86856 18.5405 3.75003 18.8266 3.75003 19.125C3.75003 19.4234 3.86856 19.7095 4.07953 19.9205C4.29051 20.1315 4.57666 20.25 4.87503 20.25C5.1734 20.25 5.45955 20.1315 5.67052 19.9205C5.8815 19.7095 6.00003 19.4234 6.00003 19.125C6.00003 18.8266 5.8815 18.5405 5.67052 18.3295C5.45955 18.1185 5.1734 18 4.87503 18Z" fill="#4B5563"/>
</svg>
