<svg width="24" height="24" viewBox="0 0 24 24" fill="none" xmlns="http://www.w3.org/2000/svg">
<path fill-rule="evenodd" clip-rule="evenodd" d="M3.75003 4.875C3.75003 4.57663 3.86856 4.29048 4.07953 4.07951C4.29051 3.86853 4.57666 3.75 4.87503 3.75C5.1734 3.75 5.45955 3.86853 5.67053 4.07951C5.8815 4.29048 6.00003 4.57663 6.00003 4.875C6.00003 5.17337 5.8815 5.45952 5.67053 5.6705C5.45955 5.88147 5.1734 6 4.87503 6C4.57666 6 4.29051 5.88147 4.07953 5.6705C3.86856 5.45952 3.75003 5.17337 3.75003 4.875ZM4.87503 1.5C4.07837 1.49932 3.30715 1.78047 2.69784 2.29371C2.08854 2.80695 1.68042 3.51918 1.54573 4.30437C1.41103 5.08956 1.55843 5.89708 1.96185 6.58405C2.36527 7.27102 2.99869 7.79313 3.75003 8.058V15.942C2.999 16.2074 2.36597 16.7298 1.96285 17.4168C1.55973 18.1038 1.41248 18.9112 1.54711 19.6963C1.68175 20.4814 2.08961 21.1936 2.69859 21.707C3.30758 22.2205 4.07848 22.5021 4.87503 22.5021C5.67158 22.5021 6.44248 22.2205 7.05147 21.707C7.66045 21.1936 8.06831 20.4814 8.20295 19.6963C8.33758 18.9112 8.19033 18.1038 7.78721 17.4168C7.38409 16.7298 6.75106 16.2074 6.00003 15.942V8.058C6.75137 7.79313 7.38479 7.27102 7.78821 6.58405C8.19163 5.89708 8.33903 5.08956 8.20433 4.30437C8.06963 3.51918 7.66152 2.80695 7.05222 2.29371C6.44291 1.78047 5.67169 1.49932 4.87503 1.5V1.5ZM4.87503 18C4.57666 18 4.29051 18.1185 4.07953 18.3295C3.86856 18.5405 3.75003 18.8266 3.75003 19.125C3.75003 19.4234 3.86856 19.7095 4.07953 19.9205C4.29051 20.1315 4.57666 20.25 4.87503 20.25C5.1734 20.25 5.45955 20.1315 5.67053 19.9205C5.8815 19.7095 6.00003 19.4234 6.00003 19.125C6.00003 18.8266 5.8815 18.5405 5.67053 18.3295C5.45955 18.1185 5.1734 18 4.87503 18ZM19.125 22.5C20.0201 22.5 20.8786 22.1444 21.5115 21.5115C22.1445 20.8786 22.5 20.0201 22.5 19.125C22.5 18.2299 22.1445 17.3715 21.5115 16.7385C20.8786 16.1056 20.0201 15.75 19.125 15.75C18.2299 15.75 17.3715 16.1056 16.7385 16.7385C16.1056 17.3715 15.75 18.2299 15.75 19.125C15.75 20.0201 16.1056 20.8786 16.7385 21.5115C17.3715 22.1444 18.2299 22.5 19.125 22.5V22.5ZM19.125 18C18.8267 18 18.5405 18.1185 18.3295 18.3295C18.1186 18.5405 18 18.8266 18 19.125C18 19.4234 18.1186 19.7095 18.3295 19.9205C18.5405 20.1315 18.8267 20.25 19.125 20.25C19.4234 20.25 19.7095 20.1315 19.9205 19.9205C20.1315 19.7095 20.25 19.4234 20.25 19.125C20.25 18.8266 20.1315 18.5405 19.9205 18.3295C19.7095 18.1185 19.4234 18 19.125 18Z" fill="#4B5563"/>
<path d="M21 11.25C21 11.7473 20.8025 12.2242 20.4508 12.5758C20.0992 12.9275 19.6223 13.125 19.125 13.125C18.6277 13.125 18.1508 12.9275 17.7992 12.5758C17.4475 12.2242 17.25 11.7473 17.25 11.25C17.25 10.7527 17.4475 10.2758 17.7992 9.92417C18.1508 9.57254 18.6277 9.375 19.125 9.375C19.6223 9.375 20.0992 9.57254 20.4508 9.92417C20.8025 10.2758 21 10.7527 21 11.25V11.25ZM21 4.875C21 5.37228 20.8025 5.84919 20.4508 6.20083C20.0992 6.55246 19.6223 6.75 19.125 6.75C18.6277 6.75 18.1508 6.55246 17.7992 6.20083C17.4475 5.84919 17.25 5.37228 17.25 4.875C17.25 4.37772 17.4475 3.90081 17.7992 3.54917C18.1508 3.19754 18.6277 3 19.125 3C19.6223 3 20.0992 3.19754 20.4508 3.54917C20.8025 3.90081 21 4.37772 21 4.875V4.875Z" fill="#4B5563"/>
</svg>
