<svg width="24" height="24" viewBox="0 0 24 24" fill="none" xmlns="http://www.w3.org/2000/svg">
<path fill-rule="evenodd" clip-rule="evenodd" d="M17.625 3.75002C17.3266 3.75002 17.0405 3.86855 16.8295 4.07952C16.6185 4.2905 16.5 4.57665 16.5 4.87502C16.5 5.17339 16.6185 5.45954 16.8295 5.67051C17.0405 5.88149 17.3266 6.00002 17.625 6.00002C17.9234 6.00002 18.2095 5.88149 18.4205 5.67051C18.6315 5.45954 18.75 5.17339 18.75 4.87502C18.75 4.57665 18.6315 4.2905 18.4205 4.07952C18.2095 3.86855 17.9234 3.75002 17.625 3.75002ZM14.25 4.87502C14.2502 4.25632 14.4205 3.64957 14.7422 3.12109C15.0639 2.59261 15.5247 2.16273 16.0742 1.87844C16.6237 1.59414 17.2408 1.46637 17.858 1.50909C18.4753 1.55181 19.0689 1.76337 19.574 2.12066C20.0791 2.47794 20.4763 2.9672 20.7221 3.53496C20.968 4.10272 21.053 4.72714 20.968 5.33997C20.8829 5.9528 20.6311 6.53046 20.2399 7.00981C19.8487 7.48917 19.3333 7.85179 18.75 8.05802V9.00002C18.75 9.99458 18.3549 10.9484 17.6517 11.6517C16.9484 12.3549 15.9946 12.75 15 12.75H9.00001C8.60219 12.75 8.22066 12.9081 7.93935 13.1894C7.65805 13.4707 7.50001 13.8522 7.50001 14.25V15.942C8.25105 16.2074 8.88407 16.7298 9.28719 17.4168C9.69031 18.1038 9.83757 18.9112 9.70293 19.6963C9.56829 20.4814 9.16044 21.1936 8.55145 21.707C7.94246 22.2205 7.17156 22.5021 6.37501 22.5021C5.57846 22.5021 4.80756 22.2205 4.19858 21.707C3.58959 21.1936 3.18173 20.4814 3.04709 19.6963C2.91246 18.9112 3.05971 18.1038 3.46283 17.4168C3.86595 16.7298 4.49898 16.2074 5.25001 15.942V8.05802C4.4994 7.79264 3.86676 7.27044 3.46393 6.58373C3.06109 5.89702 2.91399 5.09 3.04862 4.30532C3.18325 3.52064 3.59094 2.80881 4.19964 2.29565C4.80835 1.78249 5.57886 1.50104 6.37501 1.50104C7.17116 1.50104 7.94168 1.78249 8.55038 2.29565C9.15908 2.80881 9.56678 3.52064 9.70141 4.30532C9.83604 5.09 9.68893 5.89702 9.2861 6.58373C8.88326 7.27044 8.25063 7.79264 7.50001 8.05802V10.812C7.97311 10.6056 8.48383 10.4993 9.00001 10.5H15C15.3978 10.5 15.7794 10.342 16.0607 10.0607C16.342 9.77937 16.5 9.39784 16.5 9.00002V8.05802C15.8418 7.82532 15.272 7.39424 14.869 6.82418C14.4661 6.25412 14.2498 5.57312 14.25 4.87502V4.87502ZM6.37501 18C6.07664 18 5.79049 18.1185 5.57952 18.3295C5.36854 18.5405 5.25001 18.8267 5.25001 19.125C5.25001 19.4234 5.36854 19.7095 5.57952 19.9205C5.79049 20.1315 6.07664 20.25 6.37501 20.25C6.67338 20.25 6.95953 20.1315 7.17051 19.9205C7.38149 19.7095 7.50001 19.4234 7.50001 19.125C7.50001 18.8267 7.38149 18.5405 7.17051 18.3295C6.95953 18.1185 6.67338 18 6.37501 18ZM5.25001 4.87502C5.25001 4.57665 5.36854 4.2905 5.57952 4.07952C5.79049 3.86855 6.07664 3.75002 6.37501 3.75002C6.67338 3.75002 6.95953 3.86855 7.17051 4.07952C7.38149 4.2905 7.50001 4.57665 7.50001 4.87502C7.50001 5.17339 7.38149 5.45954 7.17051 5.67051C6.95953 5.88149 6.67338 6.00002 6.37501 6.00002C6.07664 6.00002 5.79049 5.88149 5.57952 5.67051C5.36854 5.45954 5.25001 5.17339 5.25001 4.87502Z" fill="#4B5563"/>
</svg>
