<svg width="24" height="24" viewBox="0 0 24 24" fill="none" xmlns="http://www.w3.org/2000/svg">
<path fill-rule="evenodd" clip-rule="evenodd" d="M14.3595 1.01551L10.7655 4.60951C10.7306 4.64434 10.7029 4.68572 10.684 4.73128C10.6651 4.77684 10.6553 4.82568 10.6553 4.87501C10.6553 4.92433 10.6651 4.97317 10.684 5.01873C10.7029 5.06429 10.7306 5.10567 10.7655 5.14051L14.3595 8.73451C14.412 8.78709 14.4788 8.82291 14.5517 8.83743C14.6245 8.85196 14.7 8.84453 14.7686 8.81609C14.8372 8.78766 14.8958 8.73949 14.937 8.6777C14.9782 8.6159 15.0001 8.54327 15 8.46901V6.00001H16.5C16.8978 6.00001 17.2794 6.15804 17.5607 6.43935C17.842 6.72065 18 7.10218 18 7.50001V15.942C17.249 16.2074 16.6159 16.7298 16.2128 17.4168C15.8097 18.1038 15.6625 18.9112 15.7971 19.6963C15.9317 20.4814 16.3396 21.1936 16.9486 21.707C17.5576 22.2205 18.3285 22.5021 19.125 22.5021C19.9216 22.5021 20.6925 22.2205 21.3014 21.707C21.9104 21.1936 22.3183 20.4814 22.4529 19.6963C22.5876 18.9112 22.4403 18.1038 22.0372 17.4168C21.6341 16.7298 21.001 16.2074 20.25 15.942V7.50001C20.25 6.50544 19.8549 5.55162 19.1517 4.84836C18.4484 4.14509 17.4946 3.75001 16.5 3.75001H15V1.28101C15.0001 1.20674 14.9782 1.13411 14.937 1.07232C14.8958 1.01052 14.8372 0.962355 14.7686 0.933917C14.7 0.905479 14.6245 0.898052 14.5517 0.912577C14.4788 0.927102 14.412 0.962925 14.3595 1.01551V1.01551ZM9.00001 18V15.531C8.99987 15.4567 9.0218 15.3841 9.06299 15.3223C9.10419 15.2605 9.1628 15.2124 9.23141 15.1839C9.30001 15.1555 9.37552 15.1481 9.44835 15.1626C9.52118 15.1771 9.58806 15.2129 9.64051 15.2655L13.2345 18.8595C13.2694 18.8943 13.2971 18.9357 13.316 18.9813C13.3349 19.0268 13.3447 19.0757 13.3447 19.125C13.3447 19.1743 13.3349 19.2232 13.316 19.2687C13.2971 19.3143 13.2694 19.3557 13.2345 19.3905L9.64051 22.9845C9.58806 23.0371 9.52118 23.0729 9.44835 23.0874C9.37552 23.102 9.30001 23.0945 9.23141 23.0661C9.1628 23.0377 9.10419 22.9895 9.06299 22.9277C9.0218 22.8659 8.99987 22.7933 9.00001 22.719V20.25H7.50001C6.50545 20.25 5.55162 19.8549 4.84836 19.1517C4.1451 18.4484 3.75001 17.4946 3.75001 16.5V8.05801C2.99939 7.79262 2.36676 7.27043 1.96392 6.58372C1.56108 5.897 1.41398 5.08999 1.54861 4.30531C1.68324 3.52062 2.09094 2.8088 2.69964 2.29564C3.30834 1.78248 4.07886 1.50103 4.87501 1.50103C5.67116 1.50103 6.44167 1.78248 7.05037 2.29564C7.65908 2.8088 8.06677 3.52062 8.2014 4.30531C8.33603 5.08999 8.18893 5.897 7.78609 6.58372C7.38326 7.27043 6.75062 7.79262 6.00001 8.05801V16.5C6.00001 16.8978 6.15804 17.2794 6.43935 17.5607C6.72065 17.842 7.10218 18 7.50001 18H9.00001ZM19.125 18C18.8266 18 18.5405 18.1185 18.3295 18.3295C18.1185 18.5405 18 18.8266 18 19.125C18 19.4234 18.1185 19.7095 18.3295 19.9205C18.5405 20.1315 18.8266 20.25 19.125 20.25C19.4234 20.25 19.7095 20.1315 19.9205 19.9205C20.1315 19.7095 20.25 19.4234 20.25 19.125C20.25 18.8266 20.1315 18.5405 19.9205 18.3295C19.7095 18.1185 19.4234 18 19.125 18ZM6.00001 4.87501C6.00001 5.17337 5.88148 5.45952 5.6705 5.6705C5.45952 5.88148 5.17338 6.00001 4.87501 6.00001C4.57664 6.00001 4.29049 5.88148 4.07951 5.6705C3.86853 5.45952 3.75001 5.17337 3.75001 4.87501C3.75001 4.57664 3.86853 4.29049 4.07951 4.07951C4.29049 3.86853 4.57664 3.75001 4.87501 3.75001C5.17338 3.75001 5.45952 3.86853 5.6705 4.07951C5.88148 4.29049 6.00001 4.57664 6.00001 4.87501V4.87501Z" fill="#4B5563"/>
</svg>
