<svg width="24" height="24" viewBox="0 0 24 24" fill="none" xmlns="http://www.w3.org/2000/svg">
<path d="M19.5 1.5H4.5C2.84315 1.5 1.5 2.84315 1.5 4.5V19.5C1.5 21.1569 2.84315 22.5 4.5 22.5H19.5C21.1569 22.5 22.5 21.1569 22.5 19.5V4.5C22.5 2.84315 21.1569 1.5 19.5 1.5Z" fill="#904EE2"/>
<path fill-rule="evenodd" clip-rule="evenodd" d="M16.3849 11.6349L16.3819 11.6289C16.4509 11.5164 16.5004 11.3919 16.5004 11.2494C16.5004 10.8354 16.1644 10.4994 15.7504 10.4994H12.0004V6.74939C12.0004 6.33539 11.6644 5.99939 11.2504 5.99939C10.9924 5.99939 10.7779 6.13739 10.6429 6.33389C10.6009 6.39539 10.5664 6.45839 10.5439 6.52889L7.62193 12.3549L7.62493 12.3594C7.55293 12.4749 7.50043 12.6039 7.50043 12.7494C7.50043 13.1649 7.83643 13.4994 8.25043 13.4994H12.0004V17.2494C12.0004 17.6649 12.3364 17.9994 12.7504 17.9994C13.0189 17.9994 13.2439 17.8509 13.3774 17.6379L13.3819 17.6394L13.4014 17.6004C13.4179 17.5689 13.4359 17.5404 13.4479 17.5074L16.3849 11.6349Z" fill="white"/>
</svg>
