<svg width="24" height="24" viewBox="0 0 24 24" fill="none" xmlns="http://www.w3.org/2000/svg">
<path d="M19.5 1.5H4.5C2.84315 1.5 1.5 2.84315 1.5 4.5V19.5C1.5 21.1569 2.84315 22.5 4.5 22.5H19.5C21.1569 22.5 22.5 21.1569 22.5 19.5V4.5C22.5 2.84315 21.1569 1.5 19.5 1.5Z" fill="#63BA3C"/>
<path fill-rule="evenodd" clip-rule="evenodd" d="M15 6H9C8.172 6 7.5 6.672 7.5 7.5V17.25C7.5 17.664 7.836 18 8.25 18C8.5125 18 8.7315 17.8575 8.865 17.6535L8.871 17.655L11.76 14.31C11.88 14.151 12.12 14.151 12.24 14.31L15.129 17.655L15.135 17.6535C15.2685 17.8575 15.4875 18 15.75 18C16.164 18 16.5 17.664 16.5 17.25V7.5C16.5 6.672 15.828 6 15 6Z" fill="white"/>
</svg>
