<svg width="24" height="24" viewBox="0 0 24 24" fill="none" xmlns="http://www.w3.org/2000/svg">
<path d="M5.21817 11.85C4.46817 12.3 3.56817 12 3.11817 11.25C2.66817 10.5 2.96817 9.75001 3.71817 9.30001L11.2182 4.80001C11.6682 4.50001 12.2682 4.50001 12.7182 4.80001L20.2182 9.30001C20.9682 9.75001 21.1182 10.65 20.6682 11.4C20.3682 12 19.4682 12.3 18.7182 11.85L11.9682 7.80001L5.21817 11.85V11.85Z" fill="#D73652"/>
<path d="M5.21817 18.3C4.46817 18.75 3.56817 18.6 3.11817 17.85C2.66817 17.1 2.96817 16.2 3.71817 15.75L11.2182 11.25C11.6682 10.95 12.2682 10.95 12.7182 11.25L20.2182 15.75C20.9682 16.2 21.1182 17.1 20.6682 17.85C20.2182 18.6 19.3182 18.75 18.5682 18.3L11.9682 14.25L5.21817 18.3V18.3Z" fill="#D73652"/>
</svg>
