<svg width="24" height="24" viewBox="0 0 24 24" fill="none" xmlns="http://www.w3.org/2000/svg">
<path d="M19.5 1.5H4.5C2.84315 1.5 1.5 2.84315 1.5 4.5V19.5C1.5 21.1569 2.84315 22.5 4.5 22.5H19.5C21.1569 22.5 22.5 21.1569 22.5 19.5V4.5C22.5 2.84315 21.1569 1.5 19.5 1.5Z" fill="#4BAEE8"/>
<path fill-rule="evenodd" clip-rule="evenodd" d="M10.2993 7.27672C10.6435 7.63529 10.6319 8.20502 10.2733 8.54925L6.52328 12.1493C6.16471 12.4935 5.59498 12.4819 5.25075 12.1233C4.90653 11.7647 4.91815 11.195 5.27672 10.8508L9.02672 7.25075C9.38529 6.90653 9.95502 6.91815 10.2993 7.27672Z" fill="white"/>
<path fill-rule="evenodd" clip-rule="evenodd" d="M13.5008 7.27672C13.1565 7.63529 13.1682 8.20502 13.5267 8.54925L17.2767 12.1493C17.6353 12.4935 18.205 12.4819 18.5492 12.1233C18.8935 11.7647 18.8818 11.195 18.5233 10.8508L14.7733 7.25075C14.4147 6.90653 13.845 6.91815 13.5008 7.27672Z" fill="white"/>
<path fill-rule="evenodd" clip-rule="evenodd" d="M5.25075 10.8767C5.59498 10.5182 6.16471 10.5065 6.52328 10.8508L10.2733 14.4508C10.6319 14.795 10.6435 15.3647 10.2993 15.7233C9.95502 16.0819 9.38529 16.0935 9.02672 15.7492L5.27672 12.1492C4.91815 11.805 4.90653 11.2353 5.25075 10.8767Z" fill="white"/>
<path fill-rule="evenodd" clip-rule="evenodd" d="M18.5492 10.8767C18.205 10.5182 17.6353 10.5065 17.2767 10.8508L13.5267 14.4508C13.1682 14.795 13.1565 15.3647 13.5008 15.7233C13.845 16.0819 14.4147 16.0935 14.7733 15.7492L18.5233 12.1492C18.8818 11.805 18.8935 11.2353 18.5492 10.8767Z" fill="white"/>
</svg>
