<svg width="24" height="24" viewBox="0 0 24 24" fill="none" xmlns="http://www.w3.org/2000/svg">
<path d="M19.5 1.5H4.5C2.84315 1.5 1.5 2.84315 1.5 4.5V19.5C1.5 21.1569 2.84315 22.5 4.5 22.5H19.5C21.1569 22.5 22.5 21.1569 22.5 19.5V4.5C22.5 2.84315 21.1569 1.5 19.5 1.5Z" fill="#4B5563"/>
<path fill-rule="evenodd" clip-rule="evenodd" d="M12 8.25C9.92871 8.25 8.25 9.92871 8.25 12C8.25 14.0713 9.92871 15.75 12 15.75C14.0713 15.75 15.75 14.0713 15.75 12C15.75 9.92871 14.0713 8.25 12 8.25ZM6.75 12C6.75 9.10029 9.10029 6.75 12 6.75C14.8997 6.75 17.25 9.10029 17.25 12C17.25 14.8997 14.8997 17.25 12 17.25C9.10029 17.25 6.75 14.8997 6.75 12Z" fill="white"/>
</svg>
