<svg width="24" height="24" viewBox="0 0 24 24" fill="none" xmlns="http://www.w3.org/2000/svg">
<path d="M19.5 1.5H4.5C2.84315 1.5 1.5 2.84315 1.5 4.5V19.5C1.5 21.1569 2.84315 22.5 4.5 22.5H19.5C21.1569 22.5 22.5 21.1569 22.5 19.5V4.5C22.5 2.84315 21.1569 1.5 19.5 1.5Z" fill="#4BAEE8"/>
<path d="M12.3 6H7.2C6.53726 6 6 6.53726 6 7.2V12.3C6 12.9627 6.53726 13.5 7.2 13.5H12.3C12.9627 13.5 13.5 12.9627 13.5 12.3V7.2C13.5 6.53726 12.9627 6 12.3 6Z" stroke="white"/>
<path d="M16.8 10.5H11.7C11.0373 10.5 10.5 11.0373 10.5 11.7V16.8C10.5 17.4627 11.0373 18 11.7 18H16.8C17.4627 18 18 17.4627 18 16.8V11.7C18 11.0373 17.4627 10.5 16.8 10.5Z" fill="white" stroke="white"/>
</svg>
