<svg width="24" height="24" viewBox="0 0 24 24" fill="none" xmlns="http://www.w3.org/2000/svg">
<path d="M18.7573 12.2181C19.5073 11.7681 20.4073 12.0681 20.8573 12.8181C21.3073 13.5681 21.0073 14.3181 20.2573 14.7681L12.7573 19.2681C12.3073 19.5681 11.7073 19.5681 11.2573 19.2681L3.75732 14.7681C3.00732 14.3181 2.85732 13.4181 3.30732 12.6681C3.60732 12.0681 4.50732 11.7681 5.25732 12.2181L12.0073 16.2681L18.7573 12.2181V12.2181Z" fill="#2253FF"/>
<path d="M18.7573 12.2181C19.5073 11.7681 20.4073 12.0681 20.8573 12.8181C21.3073 13.5681 21.0073 14.3181 20.2573 14.7681L12.7573 19.2681C12.3073 19.5681 11.7073 19.5681 11.2573 19.2681L3.75732 14.7681C3.00732 14.3181 2.85732 13.4181 3.30732 12.6681C3.60732 12.0681 4.50732 11.7681 5.25732 12.2181L12.0073 16.2681L18.7573 12.2181V12.2181Z" fill="white" fill-opacity="0.2"/>
<path d="M18.7573 5.76811C19.5073 5.31811 20.4073 5.46811 20.8573 6.21811C21.3073 6.96811 21.0073 7.86811 20.2573 8.31811L12.7573 12.8181C12.3073 13.1181 11.7073 13.1181 11.2573 12.8181L3.75732 8.31811C3.00732 7.86811 2.85732 6.96811 3.30732 6.21811C3.75732 5.46811 4.65732 5.31811 5.40732 5.76811L12.0073 9.81811L18.7573 5.76811Z" fill="#2253FF"/>
<path d="M18.7573 5.76811C19.5073 5.31811 20.4073 5.46811 20.8573 6.21811C21.3073 6.96811 21.0073 7.86811 20.2573 8.31811L12.7573 12.8181C12.3073 13.1181 11.7073 13.1181 11.2573 12.8181L3.75732 8.31811C3.00732 7.86811 2.85732 6.96811 3.30732 6.21811C3.75732 5.46811 4.65732 5.31811 5.40732 5.76811L12.0073 9.81811L18.7573 5.76811Z" fill="white" fill-opacity="0.2"/>
</svg>
