<svg width="24" height="24" viewBox="0 0 24 24" fill="none" xmlns="http://www.w3.org/2000/svg">
<path d="M19.5 1.5H4.5C2.84315 1.5 1.5 2.84315 1.5 4.5V19.5C1.5 21.1569 2.84315 22.5 4.5 22.5H19.5C21.1569 22.5 22.5 21.1569 22.5 19.5V4.5C22.5 2.84315 21.1569 1.5 19.5 1.5Z" fill="#4BADE8"/>
<path fill-rule="evenodd" clip-rule="evenodd" d="M17.437 7.07869C18.0839 7.59621 18.1888 8.54014 17.6713 9.18704L11.6713 16.687C11.1538 17.3339 10.2099 17.4388 9.56296 16.9213C8.91606 16.4038 8.81118 15.4598 9.3287 14.813L15.3287 7.31295C15.8462 6.66606 16.7901 6.56118 17.437 7.07869Z" fill="white"/>
<path fill-rule="evenodd" clip-rule="evenodd" d="M6.43934 11.6893C7.02513 11.1035 7.97487 11.1035 8.56066 11.6893L11.5607 14.6893C12.1464 15.2751 12.1464 16.2249 11.5607 16.8107C10.9749 17.3964 10.0251 17.3964 9.43934 16.8107L6.43934 13.8107C5.85355 13.2249 5.85355 12.2751 6.43934 11.6893Z" fill="white"/>
</svg>
