<svg width="20" height="20" viewBox="0 0 20 20" fill="none" xmlns="http://www.w3.org/2000/svg">
<path fill-rule="evenodd" clip-rule="evenodd" d="M11.3 1.046C11.503 1.10984 11.6803 1.23678 11.8062 1.40836C11.9321 1.57993 12 1.78719 12 2V7H16C16.1829 6.99992 16.3623 7.05001 16.5187 7.14483C16.6752 7.23964 16.8026 7.37554 16.8871 7.53774C16.9717 7.69995 17.0101 7.88223 16.9983 8.06477C16.9865 8.2473 16.9248 8.42309 16.82 8.573L9.81996 18.573C9.69813 18.7475 9.52379 18.8787 9.3223 18.9473C9.12081 19.0159 8.90268 19.0184 8.69965 18.9545C8.49663 18.8906 8.31929 18.7635 8.19345 18.5919C8.06761 18.4202 7.99982 18.2129 7.99996 18V13H3.99996C3.81704 13.0001 3.6376 12.95 3.48117 12.8552C3.32475 12.7604 3.19732 12.6245 3.11277 12.4623C3.02821 12.3001 2.98976 12.1178 3.00161 11.9352C3.01346 11.7527 3.07514 11.5769 3.17996 11.427L10.18 1.427C10.302 1.25279 10.4763 1.12201 10.6778 1.05368C10.8792 0.985341 11.0971 0.983003 11.3 1.047V1.046Z" fill="#6B7280"/>
</svg>
