<svg width="20" height="20" viewBox="0 0 20 20" fill="none" xmlns="http://www.w3.org/2000/svg">
<path fill-rule="evenodd" clip-rule="evenodd" d="M2.94 6.41201C2.65235 6.59179 2.41515 6.84178 2.25071 7.13847C2.08627 7.43516 2 7.7688 2 8.10801V16C2 16.5304 2.21071 17.0391 2.58579 17.4142C2.96086 17.7893 3.46957 18 4 18H16C16.5304 18 17.0391 17.7893 17.4142 17.4142C17.7893 17.0391 18 16.5304 18 16V8.10801C18 7.7688 17.9137 7.43516 17.7493 7.13847C17.5848 6.84178 17.3476 6.59179 17.06 6.41201L11.06 2.66201C10.7421 2.46334 10.3748 2.358 10 2.358C9.62516 2.358 9.25786 2.46334 8.94 2.66201L2.94 6.41201ZM5.555 8.83501C5.44574 8.76212 5.32319 8.71147 5.19436 8.68595C5.06553 8.66043 4.93293 8.66053 4.80413 8.68625C4.67534 8.71197 4.55287 8.76281 4.44372 8.83586C4.33457 8.90891 4.24088 9.00275 4.168 9.11201C4.09512 9.22127 4.04447 9.34381 4.01894 9.47265C3.99342 9.60148 3.99352 9.73408 4.01924 9.86287C4.07119 10.123 4.22434 10.3518 4.445 10.499L9.445 13.832C9.60933 13.9416 9.80245 14.0002 10 14.0002C10.1975 14.0002 10.3907 13.9416 10.555 13.832L15.555 10.499C15.7757 10.3518 15.9288 10.123 15.9808 9.86287C16.0327 9.60276 15.9792 9.33267 15.832 9.11201C15.6848 8.89135 15.456 8.7382 15.1959 8.68625C14.9358 8.6343 14.6657 8.68781 14.445 8.83501L10 11.798L5.555 8.83501Z" fill="#6B7280"/>
</svg>
