<svg width="20" height="20" viewBox="0 0 20 20" fill="none" xmlns="http://www.w3.org/2000/svg">
<path d="M2 3C2 2.73478 2.10536 2.48043 2.29289 2.29289C2.48043 2.10536 2.73478 2 3 2H5.153C5.38971 2.00011 5.6187 2.08418 5.79924 2.23726C5.97979 2.39034 6.10018 2.6025 6.139 2.836L6.879 7.271C6.91436 7.48222 6.88097 7.69921 6.78376 7.89003C6.68655 8.08085 6.53065 8.23543 6.339 8.331L4.791 9.104C5.34611 10.4797 6.17283 11.7293 7.22178 12.7782C8.27072 13.8272 9.52035 14.6539 10.896 15.209L11.67 13.661C11.7655 13.4695 11.9199 13.3138 12.1106 13.2166C12.3012 13.1194 12.5179 13.0859 12.729 13.121L17.164 13.861C17.3975 13.8998 17.6097 14.0202 17.7627 14.2008C17.9158 14.3813 17.9999 14.6103 18 14.847V17C18 17.2652 17.8946 17.5196 17.7071 17.7071C17.5196 17.8946 17.2652 18 17 18H15C7.82 18 2 12.18 2 5V3Z" fill="#6B7280"/>
<path d="M16.707 3.293C16.8945 3.48053 16.9998 3.73484 16.9998 4C16.9998 4.26516 16.8945 4.51947 16.707 4.707L15.414 6L16.707 7.293C16.8892 7.4816 16.99 7.7342 16.9877 7.9964C16.9854 8.2586 16.8802 8.50941 16.6948 8.69482C16.5094 8.88023 16.2586 8.9854 15.9964 8.98767C15.7342 8.98995 15.4816 8.88916 15.293 8.707L14 7.414L12.707 8.707C12.6148 8.80251 12.5044 8.87869 12.3824 8.9311C12.2604 8.98351 12.1292 9.0111 11.9964 9.01225C11.8636 9.0134 11.732 8.9881 11.6091 8.93782C11.4862 8.88754 11.3745 8.81329 11.2806 8.71939C11.1867 8.6255 11.1125 8.51385 11.0622 8.39095C11.0119 8.26806 10.9866 8.13638 10.9878 8.0036C10.9889 7.87082 11.0165 7.7396 11.0689 7.6176C11.1213 7.49559 11.1975 7.38525 11.293 7.293L12.586 6L11.293 4.707C11.1109 4.5184 11.0101 4.2658 11.0123 4.0036C11.0146 3.7414 11.1198 3.49059 11.3052 3.30518C11.4906 3.11977 11.7414 3.0146 12.0036 3.01233C12.2658 3.01005 12.5184 3.11084 12.707 3.293L14 4.586L15.293 3.293C15.4805 3.10553 15.7349 3.00021 16 3.00021C16.2652 3.00021 16.5195 3.10553 16.707 3.293Z" fill="#6B7280"/>
</svg>
