<svg width="20" height="20" viewBox="0 0 20 20" fill="none" xmlns="http://www.w3.org/2000/svg">
<path d="M14.414 7L17.707 3.707C17.8892 3.5184 17.99 3.2658 17.9877 3.0036C17.9854 2.7414 17.8802 2.49059 17.6948 2.30518C17.5094 2.11978 17.2586 2.01461 16.9964 2.01233C16.7342 2.01005 16.4816 2.11084 16.293 2.293L13 5.586V4C13 3.73479 12.8946 3.48043 12.7071 3.2929C12.5196 3.10536 12.2652 3 12 3C11.7348 3 11.4804 3.10536 11.2929 3.2929C11.1054 3.48043 11 3.73479 11 4V8.003C11 8.20038 11.0587 8.3933 11.1685 8.55728C11.2784 8.72125 11.4345 8.8489 11.617 8.924C11.7384 8.97433 11.8686 9.00016 12 9H16C16.2652 9 16.5196 8.89465 16.7071 8.70711C16.8946 8.51957 17 8.26522 17 8C17 7.73479 16.8946 7.48043 16.7071 7.2929C16.5196 7.10536 16.2652 7 16 7H14.414Z" fill="#6B7280"/>
<path d="M2 3C2 2.73478 2.10536 2.48043 2.29289 2.29289C2.48043 2.10536 2.73478 2 3 2H5.153C5.38971 2.00011 5.6187 2.08418 5.79924 2.23726C5.97979 2.39034 6.10018 2.6025 6.139 2.836L6.879 7.271C6.91436 7.48222 6.88097 7.69921 6.78376 7.89003C6.68655 8.08085 6.53065 8.23543 6.339 8.331L4.791 9.104C5.34611 10.4797 6.17283 11.7293 7.22178 12.7782C8.27072 13.8272 9.52035 14.6539 10.896 15.209L11.67 13.661C11.7655 13.4695 11.9199 13.3138 12.1106 13.2166C12.3012 13.1194 12.5179 13.0859 12.729 13.121L17.164 13.861C17.3975 13.8998 17.6097 14.0202 17.7627 14.2008C17.9158 14.3813 17.9999 14.6103 18 14.847V17C18 17.2652 17.8946 17.5196 17.7071 17.7071C17.5196 17.8946 17.2652 18 17 18H15C7.82 18 2 12.18 2 5V3Z" fill="#6B7280"/>
</svg>
