<svg width="24" height="24" viewBox="0 0 24 24" fill="none" xmlns="http://www.w3.org/2000/svg">
<path fill-rule="evenodd" clip-rule="evenodd" d="M7.50001 4.87502C7.50001 5.17339 7.38148 5.45954 7.1705 5.67051C6.95952 5.88149 6.67338 6.00002 6.37501 6.00002C6.07664 6.00002 5.79049 5.88149 5.57951 5.67051C5.36853 5.45954 5.25001 5.17339 5.25001 4.87502C5.25001 4.57665 5.36853 4.2905 5.57951 4.07952C5.79049 3.86854 6.07664 3.75002 6.37501 3.75002C6.67338 3.75002 6.95952 3.86854 7.1705 4.07952C7.38148 4.2905 7.50001 4.57665 7.50001 4.87502V4.87502ZM7.50001 8.05802C8.25062 7.79264 8.88326 7.27044 9.28609 6.58373C9.68893 5.89702 9.83603 5.09 9.7014 4.30532C9.56677 3.52064 9.15908 2.80881 8.55037 2.29565C7.94167 1.78249 7.17116 1.50104 6.37501 1.50104C5.57886 1.50104 4.80834 1.78249 4.19964 2.29565C3.59094 2.80881 3.18324 3.52064 3.04861 4.30532C2.91398 5.09 3.06108 5.89702 3.46392 6.58373C3.86676 7.27044 4.49939 7.79264 5.25001 8.05802V9.37502C5.25001 10.2701 5.60559 11.1286 6.23852 11.7615C6.87146 12.3944 7.7299 12.75 8.62501 12.75H10.875V15.942C10.124 16.2074 9.49095 16.7298 9.08783 17.4168C8.68471 18.1038 8.53745 18.9112 8.67209 19.6963C8.80673 20.4814 9.21458 21.1936 9.82357 21.707C10.4326 22.2205 11.2035 22.5021 12 22.5021C12.7966 22.5021 13.5675 22.2205 14.1764 21.707C14.7854 21.1936 15.1933 20.4814 15.3279 19.6963C15.4626 18.9112 15.3153 18.1038 14.9122 17.4168C14.5091 16.7298 13.876 16.2074 13.125 15.942V12.75H15.375C16.2701 12.75 17.1286 12.3944 17.7615 11.7615C18.3944 11.1286 18.75 10.2701 18.75 9.37502V8.05802C19.5006 7.79264 20.1333 7.27044 20.5361 6.58373C20.9389 5.89702 21.086 5.09 20.9514 4.30532C20.8168 3.52064 20.4091 2.80881 19.8004 2.29565C19.1917 1.78249 18.4212 1.50104 17.625 1.50104C16.8289 1.50104 16.0583 1.78249 15.4496 2.29565C14.8409 2.80881 14.4332 3.52064 14.2986 4.30532C14.164 5.09 14.3111 5.89702 14.7139 6.58373C15.1168 7.27044 15.7494 7.79264 16.5 8.05802V9.37502C16.5 9.67339 16.3815 9.95954 16.1705 10.1705C15.9595 10.3815 15.6734 10.5 15.375 10.5H8.62501C8.32664 10.5 8.04049 10.3815 7.82951 10.1705C7.61853 9.95954 7.50001 9.67339 7.50001 9.37502V8.05802ZM13.125 19.125C13.125 19.4234 13.0065 19.7095 12.7955 19.9205C12.5845 20.1315 12.2984 20.25 12 20.25C11.7016 20.25 11.4155 20.1315 11.2045 19.9205C10.9935 19.7095 10.875 19.4234 10.875 19.125C10.875 18.8266 10.9935 18.5405 11.2045 18.3295C11.4155 18.1185 11.7016 18 12 18C12.2984 18 12.5845 18.1185 12.7955 18.3295C13.0065 18.5405 13.125 18.8266 13.125 19.125ZM17.625 6.00002C17.9234 6.00002 18.2095 5.88149 18.4205 5.67051C18.6315 5.45954 18.75 5.17339 18.75 4.87502C18.75 4.57665 18.6315 4.2905 18.4205 4.07952C18.2095 3.86854 17.9234 3.75002 17.625 3.75002C17.3266 3.75002 17.0405 3.86854 16.8295 4.07952C16.6185 4.2905 16.5 4.57665 16.5 4.87502C16.5 5.17339 16.6185 5.45954 16.8295 5.67051C17.0405 5.88149 17.3266 6.00002 17.625 6.00002Z" fill="#4B5563"/>
</svg>
