<svg width="20" height="20" viewBox="0 0 20 20" fill="none" xmlns="http://www.w3.org/2000/svg">
<path d="M8.44498 14.832C8.59558 14.9325 8.77063 14.9902 8.95146 14.999C9.13229 15.0078 9.31212 14.9673 9.47175 14.8819C9.63138 14.7965 9.76482 14.6693 9.85785 14.514C9.95089 14.3587 10 14.181 9.99998 14V11.202L15.445 14.832C15.5956 14.9325 15.7706 14.9902 15.9515 14.999C16.1323 15.0078 16.3121 14.9673 16.4717 14.8819C16.6314 14.7965 16.7648 14.6693 16.8579 14.514C16.9509 14.3587 17 14.181 17 14V6C17 5.81896 16.9509 5.6413 16.8579 5.48599C16.7648 5.33068 16.6314 5.20354 16.4717 5.11813C16.3121 5.03272 16.1323 4.99224 15.9515 5.00103C15.7706 5.00981 15.5956 5.06752 15.445 5.168L9.99998 8.798V6C10 5.81896 9.95089 5.6413 9.85785 5.48599C9.76482 5.33068 9.63138 5.20354 9.47175 5.11813C9.31212 5.03272 9.13229 4.99224 8.95146 5.00103C8.77063 5.00981 8.59558 5.06752 8.44498 5.168L2.44498 9.168C2.30802 9.25932 2.19573 9.38304 2.11806 9.52818C2.04039 9.67332 1.99976 9.83539 1.99976 10C1.99976 10.1646 2.04039 10.3267 2.11806 10.4718C2.19573 10.617 2.30802 10.7407 2.44498 10.832L8.44498 14.832Z" fill="#6B7280"/>
</svg>
