<svg width="20" height="20" viewBox="0 0 20 20" fill="none" xmlns="http://www.w3.org/2000/svg">
<path fill-rule="evenodd" clip-rule="evenodd" d="M10 2C10.2652 2 10.5196 2.10536 10.7071 2.29289C10.8947 2.48043 11 2.73478 11 3V4.323L14.954 5.905L16.553 5.105C16.7904 4.98645 17.0651 4.96705 17.3168 5.05106C17.5685 5.13508 17.7765 5.31563 17.895 5.553C18.0136 5.79037 18.033 6.06511 17.949 6.31678C17.8649 6.56846 17.6844 6.77645 17.447 6.895L16.214 7.511L17.952 12.931C18.0109 13.1149 18.0154 13.3118 17.9648 13.4982C17.9142 13.6845 17.8108 13.8522 17.667 13.981C16.9342 14.6381 15.9843 15.001 15 15C14.0157 15.001 13.0659 14.6381 12.333 13.981C12.1892 13.8522 12.0858 13.6845 12.0352 13.4982C11.9847 13.3118 11.9891 13.1149 12.048 12.931L13.763 7.582L11 6.477V16H13C13.2652 16 13.5196 16.1054 13.7071 16.2929C13.8947 16.4804 14 16.7348 14 17C14 17.2652 13.8947 17.5196 13.7071 17.7071C13.5196 17.8946 13.2652 18 13 18H7.00002C6.7348 18 6.48045 17.8946 6.29291 17.7071C6.10537 17.5196 6.00002 17.2652 6.00002 17C6.00002 16.7348 6.10537 16.4804 6.29291 16.2929C6.48045 16.1054 6.7348 16 7.00002 16H9.00002V6.477L6.23702 7.582L7.95202 12.931C8.01094 13.1149 8.01538 13.3118 7.96481 13.4982C7.91424 13.6845 7.81081 13.8522 7.66702 13.981C6.93418 14.6381 5.98429 15.001 5.00002 15C4.01575 15.001 3.06585 14.6381 2.33302 13.981C2.18922 13.8522 2.0858 13.6845 2.03522 13.4982C1.98465 13.3118 1.98909 13.1149 2.04802 12.931L3.78602 7.511L2.55302 6.894C2.32429 6.77066 2.15256 6.56312 2.0742 6.31535C1.99584 6.06758 2.01701 5.79904 2.13323 5.56661C2.24945 5.33418 2.45158 5.15611 2.69681 5.07014C2.94204 4.98416 3.21111 4.99702 3.44702 5.106L5.04602 5.905L9.00002 4.323V3C9.00002 2.73478 9.10537 2.48043 9.29291 2.29289C9.48045 2.10536 9.7348 2 10 2ZM5.00002 10.274L4.18202 12.826C4.43202 12.938 4.70802 13 5.00002 13C5.29202 13 5.56902 12.938 5.81802 12.826L5.00002 10.274ZM15 10.274L14.182 12.826C14.432 12.938 14.708 13 15 13C15.292 13 15.569 12.938 15.818 12.826L15 10.274Z" fill="#6B7280"/>
</svg>
