<svg width="20" height="20" viewBox="0 0 20 20" fill="none" xmlns="http://www.w3.org/2000/svg">
<path fill-rule="evenodd" clip-rule="evenodd" d="M18 3C17.9999 2.82961 17.9563 2.66207 17.8733 2.51327C17.7902 2.36448 17.6706 2.23936 17.5256 2.14981C17.3806 2.06025 17.2152 2.00921 17.045 2.00155C16.8748 1.99388 16.7054 2.02984 16.553 2.106L8.763 6H5C4.20435 6 3.44129 6.31607 2.87868 6.87868C2.31607 7.44129 2 8.20435 2 9C2 9.79565 2.31607 10.5587 2.87868 11.1213C3.44129 11.6839 4.20435 12 5 12H5.28L7.051 17.316C7.11735 17.5152 7.24472 17.6885 7.41505 17.8112C7.58538 17.934 7.79004 18.0001 8 18H9C9.26522 18 9.51957 17.8946 9.70711 17.7071C9.89464 17.5196 10 17.2652 10 17V12.618L16.553 15.894C16.7054 15.9702 16.8748 16.0061 17.045 15.9985C17.2152 15.9908 17.3806 15.9398 17.5256 15.8502C17.6706 15.7606 17.7902 15.6355 17.8733 15.4867C17.9563 15.3379 17.9999 15.1704 18 15V3Z" fill="#6B7280"/>
</svg>
