<svg width="20" height="20" viewBox="0 0 20 20" fill="none" xmlns="http://www.w3.org/2000/svg">
<path d="M3.70703 2.293C3.51843 2.11084 3.26583 2.01005 3.00363 2.01233C2.74143 2.01461 2.49062 2.11978 2.30521 2.30518C2.1198 2.49059 2.01463 2.7414 2.01236 3.0036C2.01008 3.2658 2.11087 3.5184 2.29303 3.707L9.21403 10.629C9.26403 10.691 9.31903 10.747 9.38203 10.796L16.292 17.707C16.3849 17.7999 16.4951 17.8736 16.6164 17.9239C16.7378 17.9742 16.8678 18.0002 16.9992 18.0002C17.1305 18.0003 17.2606 17.9744 17.382 17.9242C17.5033 17.874 17.6136 17.8003 17.7065 17.7075C17.7994 17.6147 17.8732 17.5044 17.9235 17.3831C17.9738 17.2618 17.9997 17.1317 17.9997 17.0004C17.9998 16.869 17.974 16.7389 17.9237 16.6176C17.8735 16.4962 17.7999 16.3859 17.707 16.293L17.032 15.618C18.4137 13.8882 19.1094 11.7099 18.9862 9.49944C18.863 7.28899 17.9294 5.2015 16.364 3.636C16.2718 3.54049 16.1614 3.46431 16.0394 3.4119C15.9174 3.35949 15.7862 3.33191 15.6534 3.33075C15.5207 3.3296 15.389 3.3549 15.2661 3.40518C15.1432 3.45546 15.0315 3.52972 14.9376 3.62361C14.8437 3.7175 14.7695 3.82915 14.7192 3.95205C14.6689 4.07494 14.6436 4.20662 14.6448 4.3394C14.6459 4.47218 14.6735 4.6034 14.7259 4.72541C14.7783 4.84741 14.8545 4.95776 14.95 5.05C16.1404 6.24046 16.8619 7.81991 16.9826 9.49905C17.1033 11.1782 16.6149 12.8446 15.607 14.193L14.172 12.758C14.8075 11.7963 15.0913 10.6446 14.9754 9.49769C14.8595 8.35082 14.351 7.27918 13.536 6.464C13.3483 6.27623 13.0936 6.17074 12.828 6.17074C12.5625 6.17074 12.3078 6.27623 12.12 6.464C11.9323 6.65178 11.8268 6.90645 11.8268 7.172C11.8268 7.43755 11.9323 7.69223 12.12 7.88C13.044 8.803 13.24 10.18 12.707 11.295L10.715 9.303C10.7091 9.29692 10.7031 9.29092 10.697 9.285L3.70703 2.294V2.293ZM3.23803 8.187C3.30646 7.93067 3.27025 7.65766 3.13738 7.42802C3.00451 7.19838 2.78586 7.03093 2.52953 6.9625C2.2732 6.89408 2.00018 6.93028 1.77054 7.06315C1.54091 7.19602 1.37346 7.41467 1.30503 7.671C0.50503 10.671 1.28003 14.007 3.63603 16.364C3.72894 16.4568 3.83923 16.5305 3.9606 16.5807C4.08196 16.6309 4.21204 16.6568 4.34338 16.6567C4.47473 16.6567 4.60479 16.6307 4.72612 16.5804C4.84745 16.5301 4.95769 16.4564 5.05053 16.3635C5.14337 16.2706 5.21701 16.1603 5.26723 16.0389C5.31745 15.9176 5.34328 15.7875 5.34323 15.6561C5.34319 15.5248 5.31727 15.3947 5.26696 15.2734C5.21665 15.1521 5.14294 15.0418 5.05003 14.949C4.18077 14.0803 3.55565 12.998 3.23756 11.8109C2.91947 10.6239 2.91963 9.37397 3.23803 8.187ZM7.40003 11.5C7.33752 11.3805 7.25147 11.2749 7.14708 11.1895C7.04268 11.1041 6.92209 11.0407 6.79257 11.0031C6.66304 10.9655 6.52725 10.9546 6.39336 10.9708C6.25948 10.9871 6.13027 11.0303 6.0135 11.0978C5.89674 11.1653 5.79483 11.2557 5.71391 11.3636C5.633 11.4715 5.57475 11.5946 5.54266 11.7256C5.51057 11.8566 5.50532 11.9927 5.5272 12.1258C5.54909 12.2589 5.59768 12.3862 5.67003 12.5C5.88403 12.871 6.15003 13.22 6.46503 13.535C6.65363 13.7172 6.90623 13.818 7.16843 13.8157C7.43063 13.8134 7.68144 13.7082 7.86685 13.5228C8.05226 13.3374 8.15743 13.0866 8.1597 12.8244C8.16198 12.5622 8.06119 12.3096 7.87903 12.121C7.68803 11.93 7.52903 11.721 7.40103 11.499L7.40003 11.5Z" fill="#6B7280"/>
</svg>
