<svg width="20" height="20" viewBox="0 0 20 20" fill="none" xmlns="http://www.w3.org/2000/svg">
<path fill-rule="evenodd" clip-rule="evenodd" d="M5.04996 3.636C5.23743 3.82353 5.34274 4.07784 5.34274 4.343C5.34274 4.60817 5.23743 4.86247 5.04996 5.05C4.39987 5.70002 3.88419 6.47173 3.53236 7.32105C3.18053 8.17038 2.99945 9.08069 2.99945 10C2.99945 10.9193 3.18053 11.8296 3.53236 12.679C3.88419 13.5283 4.39987 14.3 5.04996 14.95C5.14547 15.0422 5.22165 15.1526 5.27406 15.2746C5.32647 15.3966 5.35405 15.5278 5.35521 15.6606C5.35636 15.7934 5.33106 15.9251 5.28078 16.048C5.2305 16.1709 5.15624 16.2825 5.06235 16.3764C4.96846 16.4703 4.85681 16.5445 4.73391 16.5948C4.61101 16.6451 4.47933 16.6704 4.34655 16.6693C4.21378 16.6681 4.08256 16.6405 3.96055 16.5881C3.83855 16.5357 3.7282 16.4595 3.63596 16.364C2.80022 15.5283 2.13727 14.5361 1.68497 13.4442C1.23267 12.3522 0.999878 11.1819 0.999878 10C0.999878 8.8181 1.23267 7.64776 1.68497 6.55583C2.13727 5.46389 2.80022 4.47173 3.63596 3.636C3.82348 3.44853 4.07779 3.34322 4.34296 3.34322C4.60812 3.34322 4.86243 3.44853 5.04996 3.636ZM14.95 3.636C15.1375 3.44853 15.3918 3.34322 15.657 3.34322C15.9221 3.34322 16.1764 3.44853 16.364 3.636C17.1997 4.47173 17.8626 5.46389 18.3149 6.55583C18.7672 7.64776 19 8.8181 19 10C19 11.1819 18.7672 12.3522 18.3149 13.4442C17.8626 14.5361 17.1997 15.5283 16.364 16.364C16.2717 16.4595 16.1614 16.5357 16.0394 16.5881C15.9174 16.6405 15.7861 16.6681 15.6534 16.6693C15.5206 16.6704 15.3889 16.6451 15.266 16.5948C15.1431 16.5445 15.0315 16.4703 14.9376 16.3764C14.8437 16.2825 14.7694 16.1709 14.7191 16.048C14.6689 15.9251 14.6436 15.7934 14.6447 15.6606C14.6459 15.5278 14.6734 15.3966 14.7259 15.2746C14.7783 15.1526 14.8544 15.0422 14.95 14.95C15.6 14.3 16.1157 13.5283 16.4676 12.679C16.8194 11.8296 17.0005 10.9193 17.0005 10C17.0005 9.08069 16.8194 8.17038 16.4676 7.32105C16.1157 6.47173 15.6 5.70002 14.95 5.05C14.7625 4.86247 14.6572 4.60817 14.6572 4.343C14.6572 4.07784 14.7625 3.82353 14.95 3.636ZM7.87896 6.464C8.06643 6.65153 8.17174 6.90584 8.17174 7.171C8.17174 7.43617 8.06643 7.69047 7.87896 7.878C7.60033 8.15658 7.3793 8.48733 7.22851 8.85134C7.07771 9.21534 7.0001 9.60549 7.0001 9.9995C7.0001 10.3935 7.07771 10.7837 7.22851 11.1477C7.3793 11.5117 7.60033 11.8424 7.87896 12.121C7.9718 12.2139 8.04544 12.3242 8.09566 12.4456C8.14588 12.5669 8.1717 12.697 8.17166 12.8284C8.17161 12.9597 8.1457 13.0898 8.09539 13.2111C8.04508 13.3324 7.97137 13.4427 7.87846 13.5355C7.78555 13.6283 7.67526 13.702 7.55389 13.7522C7.43252 13.8024 7.30245 13.8283 7.1711 13.8282C7.03975 13.8282 6.9097 13.8022 6.78837 13.7519C6.66704 13.7016 6.5568 13.6279 6.46396 13.535C5.5266 12.5974 5.00002 11.3258 5.00002 10C5.00002 8.67418 5.5266 7.40264 6.46396 6.465C6.55683 6.37203 6.66712 6.29827 6.78852 6.24794C6.90991 6.19762 7.04004 6.17172 7.17146 6.17172C7.30287 6.17172 7.433 6.19762 7.5544 6.24794C7.67579 6.29827 7.78608 6.37203 7.87896 6.465V6.464ZM12.121 6.464C12.2138 6.37103 12.3241 6.29727 12.4455 6.24694C12.5669 6.19662 12.697 6.17072 12.8285 6.17072C12.9599 6.17072 13.09 6.19662 13.2114 6.24694C13.3328 6.29727 13.4431 6.37103 13.536 6.464C14.0004 6.92831 14.3688 7.47957 14.6202 8.08628C14.8715 8.69299 15.0009 9.34328 15.0009 10C15.0009 10.6567 14.8715 11.307 14.6202 11.9137C14.3688 12.5204 14.0004 13.0717 13.536 13.536C13.3483 13.7236 13.0938 13.8291 12.8285 13.8291C12.5631 13.8291 12.3086 13.7236 12.121 13.536C11.9333 13.3484 11.8279 13.0939 11.8279 12.8285C11.8279 12.5631 11.9333 12.3086 12.121 12.121C12.6834 11.5584 12.9993 10.7955 12.9993 10C12.9993 9.20451 12.6834 8.44159 12.121 7.879C12.028 7.78613 11.9542 7.67584 11.9039 7.55444C11.8536 7.43304 11.8277 7.30292 11.8277 7.1715C11.8277 7.04009 11.8536 6.90996 11.9039 6.78856C11.9542 6.66716 12.028 6.55688 12.121 6.464ZM9.99996 9C10.2652 9 10.5195 9.10536 10.7071 9.2929C10.8946 9.48043 11 9.73479 11 10V10.01C11 10.2752 10.8946 10.5296 10.7071 10.7171C10.5195 10.9046 10.2652 11.01 9.99996 11.01C9.73474 11.01 9.48039 10.9046 9.29285 10.7171C9.10531 10.5296 8.99996 10.2752 8.99996 10.01V10C8.99996 9.73479 9.10531 9.48043 9.29285 9.2929C9.48039 9.10536 9.73474 9 9.99996 9Z" fill="#6B7280"/>
</svg>
