<svg width="20" height="20" viewBox="0 0 20 20" fill="none" xmlns="http://www.w3.org/2000/svg">
<path d="M8.00003 5C7.73481 5 7.48046 5.10536 7.29292 5.2929C7.10539 5.48043 7.00003 5.73479 7.00003 6C7.00003 6.26522 7.10539 6.51958 7.29292 6.70711C7.48046 6.89465 7.73481 7 8.00003 7H13.586L12.293 8.293C12.1109 8.48161 12.0101 8.73421 12.0124 8.99641C12.0146 9.2586 12.1198 9.50942 12.3052 9.69482C12.4906 9.88023 12.7414 9.9854 13.0036 9.98768C13.2658 9.98996 13.5184 9.88916 13.707 9.707L16.707 6.707C16.8945 6.51948 16.9998 6.26517 16.9998 6C16.9998 5.73484 16.8945 5.48053 16.707 5.293L13.707 2.293C13.6148 2.19749 13.5044 2.12131 13.3824 2.0689C13.2604 2.01649 13.1292 1.98891 12.9964 1.98775C12.8637 1.9866 12.732 2.0119 12.6091 2.06218C12.4862 2.11246 12.3745 2.18672 12.2806 2.28061C12.1867 2.3745 12.1125 2.48615 12.0622 2.60905C12.0119 2.73195 11.9866 2.86363 11.9878 2.99641C11.9889 3.12919 12.0165 3.26041 12.0689 3.38241C12.1213 3.50441 12.1975 3.61476 12.293 3.707L13.586 5H8.00003ZM12 15C12.2652 15 12.5196 14.8946 12.7071 14.7071C12.8947 14.5196 13 14.2652 13 14C13 13.7348 12.8947 13.4804 12.7071 13.2929C12.5196 13.1054 12.2652 13 12 13H6.41403L7.70703 11.707C7.80254 11.6148 7.87872 11.5044 7.93113 11.3824C7.98354 11.2604 8.01113 11.1292 8.01228 10.9964C8.01344 10.8636 7.98813 10.7319 7.93785 10.6091C7.88757 10.4862 7.81332 10.3745 7.71943 10.2806C7.62553 10.1867 7.51388 10.1125 7.39098 10.0622C7.26809 10.0119 7.13641 9.9866 7.00363 9.98775C6.87085 9.98891 6.73963 10.0165 6.61763 10.0689C6.49562 10.1213 6.38528 10.1975 6.29303 10.293L3.29303 13.293C3.10556 13.4805 3.00024 13.7348 3.00024 14C3.00024 14.2652 3.10556 14.5195 3.29303 14.707L6.29303 17.707C6.48163 17.8892 6.73424 17.99 6.99643 17.9877C7.25863 17.9854 7.50944 17.8802 7.69485 17.6948C7.88026 17.5094 7.98543 17.2586 7.9877 16.9964C7.98998 16.7342 7.88919 16.4816 7.70703 16.293L6.41403 15H12Z" fill="#6B7280"/>
</svg>
