<svg width="20" height="20" viewBox="0 0 20 20" fill="none" xmlns="http://www.w3.org/2000/svg">
<path fill-rule="evenodd" clip-rule="evenodd" d="M9.383 3.076C9.56569 3.15175 9.72181 3.27996 9.83163 3.44443C9.94146 3.6089 10 3.80224 10 4V16C9.99996 16.1978 9.94129 16.3911 9.8314 16.5555C9.72152 16.7199 9.56535 16.848 9.38265 16.9237C9.19995 16.9993 8.99892 17.0192 8.80497 16.9806C8.61102 16.942 8.43285 16.8468 8.293 16.707L4.586 13H2C1.73478 13 1.48043 12.8946 1.29289 12.7071C1.10536 12.5196 1 12.2652 1 12V8C1 7.73479 1.10536 7.48043 1.29289 7.2929C1.48043 7.10536 1.73478 7 2 7H4.586L8.293 3.293C8.43285 3.15307 8.61105 3.05776 8.80508 3.01913C8.9991 2.98051 9.20023 3.0003 9.383 3.076ZM14.657 2.929C14.8445 2.74153 15.0988 2.63622 15.364 2.63622C15.6292 2.63622 15.8835 2.74153 16.071 2.929C17.0008 3.85665 17.7382 4.95886 18.2409 6.17231C18.7435 7.38576 19.0015 8.68656 19 10C19.0015 11.3134 18.7435 12.6142 18.2409 13.8277C17.7382 15.0411 17.0008 16.1433 16.071 17.071C15.8824 17.2532 15.6298 17.354 15.3676 17.3517C15.1054 17.3494 14.8546 17.2442 14.6692 17.0588C14.4838 16.8734 14.3786 16.6226 14.3763 16.3604C14.374 16.0982 14.4748 15.8456 14.657 15.657C15.4011 14.9151 15.9912 14.0333 16.3933 13.0624C16.7955 12.0916 17.0016 11.0508 17 10C17 7.79 16.106 5.792 14.657 4.343C14.4695 4.15547 14.3642 3.90117 14.3642 3.636C14.3642 3.37084 14.4695 3.11653 14.657 2.929ZM11.828 5.757C11.9209 5.66403 12.0312 5.59027 12.1526 5.53994C12.274 5.48962 12.4041 5.46371 12.5355 5.46371C12.6669 5.46371 12.797 5.48962 12.9184 5.53994C13.0398 5.59027 13.1501 5.66403 13.243 5.757C13.8009 6.31367 14.2433 6.97507 14.5448 7.70321C14.8463 8.43136 15.001 9.2119 15 10C15.001 10.7881 14.8463 11.5686 14.5447 12.2968C14.2432 13.0249 13.8008 13.6863 13.243 14.243C13.0554 14.4306 12.8009 14.5361 12.5355 14.5361C12.2701 14.5361 12.0156 14.4306 11.828 14.243C11.6404 14.0554 11.5349 13.8009 11.5349 13.5355C11.5349 13.2701 11.6404 13.0156 11.828 12.828C12.2002 12.4572 12.4953 12.0164 12.6965 11.5311C12.8976 11.0457 13.0008 10.5254 13 10C13.0008 9.47462 12.8977 8.95427 12.6965 8.46891C12.4954 7.98356 12.2002 7.54279 11.828 7.172C11.735 7.07913 11.6613 6.96884 11.6109 6.84744C11.5606 6.72604 11.5347 6.59592 11.5347 6.4645C11.5347 6.33309 11.5606 6.20296 11.6109 6.08156C11.6613 5.96016 11.735 5.84987 11.828 5.757Z" fill="#6B7280"/>
</svg>
