<svg width="20" height="20" viewBox="0 0 20 20" fill="none" xmlns="http://www.w3.org/2000/svg">
<path fill-rule="evenodd" clip-rule="evenodd" d="M17.778 8.22199C13.482 3.92599 6.51799 3.92599 2.22199 8.22199C2.03339 8.40415 1.78079 8.50495 1.51859 8.50267C1.2564 8.50039 1.00558 8.39522 0.820176 8.20981C0.634768 8.02441 0.529599 7.77359 0.527321 7.5114C0.525042 7.2492 0.625836 6.9966 0.807995 6.80799C5.88399 1.73099 14.116 1.73099 19.192 6.80799C19.3742 6.9966 19.4749 7.2492 19.4727 7.5114C19.4704 7.77359 19.3652 8.02441 19.1798 8.20981C18.9944 8.39522 18.7436 8.50039 18.4814 8.50267C18.2192 8.50495 17.9666 8.40415 17.778 8.22199ZM14.95 11.05C14.3 10.3999 13.5283 9.88423 12.6789 9.5324C11.8296 9.18057 10.9193 8.99949 9.99999 8.99949C9.08068 8.99949 8.17037 9.18057 7.32105 9.5324C6.47172 9.88423 5.70001 10.3999 5.04999 11.05C4.86139 11.2322 4.60879 11.3329 4.34659 11.3307C4.0844 11.3284 3.83358 11.2232 3.64818 11.0378C3.46277 10.8524 3.3576 10.6016 3.35532 10.3394C3.35304 10.0772 3.45384 9.8246 3.63599 9.63599C4.47172 8.80025 5.46388 8.13731 6.55582 7.68501C7.64776 7.23271 8.81809 6.99992 9.99999 6.99992C11.1819 6.99992 12.3522 7.23271 13.4442 7.68501C14.5361 8.13731 15.5283 8.80025 16.364 9.63599C16.5462 9.8246 16.6469 10.0772 16.6447 10.3394C16.6424 10.6016 16.5372 10.8524 16.3518 11.0378C16.1664 11.2232 15.9156 11.3284 15.6534 11.3307C15.3912 11.3329 15.1386 11.2322 14.95 11.05ZM12.12 13.88C11.5574 13.3176 10.7945 13.0016 9.99899 13.0016C9.2035 13.0016 8.44058 13.3176 7.87799 13.88C7.69035 14.0676 7.43586 14.173 7.17049 14.173C6.90513 14.173 6.65064 14.0676 6.46299 13.88C6.27535 13.6924 6.16994 13.4379 6.16994 13.1725C6.16994 12.9071 6.27535 12.6526 6.46299 12.465C6.9273 12.0006 7.47856 11.6321 8.08527 11.3808C8.69199 11.1294 9.34227 11.0001 9.99899 11.0001C10.6557 11.0001 11.306 11.1294 11.9127 11.3808C12.5194 11.6321 13.0707 12.0006 13.535 12.465C13.7226 12.6526 13.8281 12.9071 13.8281 13.1725C13.8281 13.4379 13.7226 13.6924 13.535 13.88C13.3474 14.0676 13.0929 14.173 12.8275 14.173C12.5621 14.173 12.3076 14.0676 12.12 13.88ZM8.99999 16C8.99999 15.7348 9.10535 15.4804 9.29289 15.2929C9.48042 15.1054 9.73478 15 9.99999 15H10.01C10.2752 15 10.5296 15.1054 10.7171 15.2929C10.9046 15.4804 11.01 15.7348 11.01 16C11.01 16.2652 10.9046 16.5196 10.7171 16.7071C10.5296 16.8946 10.2752 17 10.01 17H9.99999C9.73478 17 9.48042 16.8946 9.29289 16.7071C9.10535 16.5196 8.99999 16.2652 8.99999 16Z" fill="#6B7280"/>
</svg>
