<svg width="20" height="20" viewBox="0 0 20 20" fill="none" xmlns="http://www.w3.org/2000/svg">
<path fill-rule="evenodd" clip-rule="evenodd" d="M8 4C6.93913 4 5.92172 4.42143 5.17157 5.17158C4.42143 5.92172 4 6.93914 4 8C4 9.06087 4.42143 10.0783 5.17157 10.8284C5.92172 11.5786 6.93913 12 8 12C9.06087 12 10.0783 11.5786 10.8284 10.8284C11.5786 10.0783 12 9.06087 12 8C12 6.93914 11.5786 5.92172 10.8284 5.17158C10.0783 4.42143 9.06087 4 8 4ZM2 8C1.99988 7.05571 2.22264 6.12472 2.65017 5.28274C3.0777 4.44077 3.69792 3.7116 4.4604 3.15453C5.22287 2.59746 6.10606 2.22822 7.03815 2.07684C7.97023 1.92546 8.92488 1.99621 9.82446 2.28335C10.724 2.57049 11.5432 3.06591 12.2152 3.7293C12.8872 4.39269 13.3931 5.20534 13.6919 6.10114C13.9906 6.99693 14.0737 7.9506 13.9343 8.88456C13.795 9.81852 13.4372 10.7064 12.89 11.476L17.707 16.293C17.8892 16.4816 17.99 16.7342 17.9877 16.9964C17.9854 17.2586 17.8802 17.5094 17.6948 17.6948C17.5094 17.8802 17.2586 17.9854 16.9964 17.9877C16.7342 17.99 16.4816 17.8892 16.293 17.707L11.477 12.891C10.5794 13.5293 9.52335 13.9082 8.42468 13.9861C7.326 14.0641 6.22707 13.8381 5.2483 13.333C4.26953 12.8278 3.44869 12.063 2.87572 11.1224C2.30276 10.1817 1.99979 9.10144 2 8Z" fill="#6B7280"/>
<path fill-rule="evenodd" clip-rule="evenodd" d="M5 8C5 7.73478 5.10536 7.48043 5.29289 7.29289C5.48043 7.10536 5.73478 7 6 7H10C10.2652 7 10.5196 7.10536 10.7071 7.29289C10.8946 7.48043 11 7.73478 11 8C11 8.26522 10.8946 8.51957 10.7071 8.70711C10.5196 8.89464 10.2652 9 10 9H6C5.73478 9 5.48043 8.89464 5.29289 8.70711C5.10536 8.51957 5 8.26522 5 8Z" fill="#6B7280"/>
</svg>
